<?xml version="1.0" encoding="UTF-8" standalone="no"?>
<!-- Created with Inkscape (http://www.inkscape.org/) -->

<svg
   width="210mm"
   height="297mm"
   viewBox="0 0 210 297"
   version="1.1"
   id="svg1"
   inkscape:version="1.3 (0e150ed6c4, 2023-07-21)"
   sodipodi:docname="tektite-logo-moldavite-dark.svg"
   xmlns:inkscape="http://www.inkscape.org/namespaces/inkscape"
   xmlns:sodipodi="http://sodipodi.sourceforge.net/DTD/sodipodi-0.dtd"
   xmlns="http://www.w3.org/2000/svg"
   xmlns:svg="http://www.w3.org/2000/svg">
  <sodipodi:namedview
     id="namedview1"
     pagecolor="#1e232d"
     bordercolor="#000000"
     borderopacity="0.25"
     inkscape:showpageshadow="2"
     inkscape:pageopacity="0.0"
     inkscape:pagecheckerboard="0"
     inkscape:deskcolor="#d1d1d1"
     inkscape:document-units="mm"
     inkscape:zoom="1.4614334"
     inkscape:cx="615.49163"
     inkscape:cy="535.09111"
     inkscape:window-width="3834"
     inkscape:window-height="2081"
     inkscape:window-x="2560"
     inkscape:window-y="76"
     inkscape:window-maximized="1"
     inkscape:current-layer="layer1" />
  <defs
     id="defs1" />
  <g
     inkscape:label="Layer 1"
     inkscape:groupmode="layer"
     id="layer1">
    <g
       id="g3"
       transform="translate(21.302681,34.412778)">
      <g
         id="g1"
         transform="translate(10.054167)">
        <g
           fill="#000000"
           fill-opacity="1"
           id="g27"
           transform="matrix(0.29673811,0,0,0.29673811,-27.006076,46.008782)"
           style="display:inline;fill:#ababab;fill-opacity:1"
           inkscape:label="E">
          <g
             transform="translate(370.4583,109.61812)"
             id="g26"
             style="fill:#ababab;fill-opacity:1">
            <g
               id="g25"
               style="fill:#ababab;fill-opacity:1">
              <path
                 d="m 3.4900361,152.62836 c 11.0643559,0 20.3537709,-5.57365 23.5718899,-13.50283 L 20.6091,136.488 c -2.73706,5.37459 -9.289415,9.38895 -17.0195345,9.38895 -10.6662385,0 -18.5788295,-7.13294 -19.6570655,-17.41765 h 41.570131 c 0.09953,-0.97872 0.09953,-2.04036 0.09953,-2.93613 -0.199058,-15.24459 -9.687532,-26.209417 -24.169066,-26.209417 -14.664005,0 -25.230714,10.964827 -25.230714,26.126487 0,15.74223 11.545416,27.18812 27.2876561,27.18812 z M -15.96797,121.90694 c 1.360235,-9.38895 8.11165,-15.74224 17.301535,-15.74224 9.007414,0 15.36071,5.67318 16.339416,15.74224 z m 0,0"
                 id="path25"
                 style="fill:#ababab;fill-opacity:1;stroke-width:1.06165" />
            </g>
          </g>
        </g>
        <g
           fill="#000000"
           fill-opacity="1"
           id="g36"
           transform="matrix(0.29673811,0,0,0.29673811,-33.732977,91.333158)"
           style="fill:#ababab;fill-opacity:1">
          <g
             transform="translate(423.34475,109.61812)"
             id="g33"
             style="fill:#ababab;fill-opacity:1">
            <g
               id="g32"
               style="fill:#ababab;fill-opacity:1">
              <path
                 d="m 4.609375,0 h 7 v -16.125 l 6.734375,-7 L 33.8125,0 h 8.484375 L 23.125,-28.1875 40.71875,-46.53125 h -9.296875 l -19.71875,21.015625 h -0.09375 V -67.71875 h -7 z m 0,0"
                 id="path27"
                 style="fill:#ababab;fill-opacity:1" />
            </g>
          </g>
        </g>
        <g
           fill="#000000"
           fill-opacity="1"
           id="g52"
           transform="matrix(0.29673811,0,0,0.29673811,-74.669611,90.786049)"
           style="fill:#ababab;fill-opacity:1">
          <g
             transform="translate(465.63549,109.61812)"
             id="g40"
             style="fill:#ababab;fill-opacity:1">
            <g
               id="g38"
               style="fill:#ababab;fill-opacity:1">
              <path
                 d="m 24.875,1.84375 c 7.921875,0 15.015625,-4.96875 16.3125,-13.078125 l -5.71875,-2.40625 c -0.921875,6 -5.25,9.40625 -9.953125,9.40625 -5.0625,0 -8.28125,-3.78125 -8.28125,-9.03125 V -40.71875 h 20.8125 v -5.8125 h -20.8125 v -15.484375 l -7,1.65625 V -46.53125 H 0 v 5.8125 h 10.234375 v 28.1875 c 0,8.484375 5.890625,14.375 14.640625,14.375 z m 0,0"
                 id="path36"
                 style="fill:#ababab;fill-opacity:1" />
            </g>
          </g>
        </g>
        <g
           fill="#000000"
           fill-opacity="1"
           id="g55"
           transform="matrix(0.29673811,0,0,0.29673811,-33.732977,91.333158)"
           style="display:inline;fill:#ababab;fill-opacity:1">
          <g
             transform="translate(507.18912,109.61812)"
             id="g54"
             style="fill:#ababab;fill-opacity:1">
            <g
               id="g53"
               style="fill:#ababab;fill-opacity:1">
              <path
                 d="m 8.84375,-55.5625 c 3.046875,0 5.25,-2.03125 5.25,-5.15625 0,-3.046875 -2.203125,-5.0625 -5.25,-5.0625 -3.125,0 -5.15625,2.015625 -5.15625,5.0625 0,3.125 2.03125,5.15625 5.15625,5.15625 z M 5.25,0 h 7 v -46.53125 h -7 z m 0,0"
                 id="path52"
                 style="fill:#ababab;fill-opacity:1" />
            </g>
          </g>
        </g>
        <g
           fill="#000000"
           fill-opacity="1"
           id="g58"
           transform="matrix(0.29673811,0,0,0.29673811,-33.732977,91.333158)"
           style="display:inline;fill:#ababab;fill-opacity:1">
          <g
             transform="translate(524.97149,109.61812)"
             id="g57"
             style="fill:#ababab;fill-opacity:1">
            <g
               id="g56"
               style="fill:#ababab;fill-opacity:1">
              <path
                 d="m 24.875,1.84375 c 7.921875,0 15.009669,-1.34938536 16.306544,-9.4587604 l -5.71875,-2.4062496 c -0.921875,5.9999996 -5.244044,5.786885 -9.947169,5.786885 -5.0625,0 -8.28125,-3.78125 -8.28125,-9.03125 V -40.71875 h 20.8125 v -5.8125 h -20.8125 v -15.484375 l -7,1.65625 V -46.53125 H 0 v 5.8125 h 10.234375 v 28.1875 c 0,8.484375 5.890625,14.375 14.640625,14.375 z"
                 id="path55"
                 sodipodi:nodetypes="sccssccccccccccss"
                 style="fill:#ababab;fill-opacity:1" />
              <path
                 d="m -37.4951,1.84375 c 7.921875,0 15.009669,-1.34938497 16.306544,-9.45876 l -5.71875,-2.40625 c -0.921875,6 -5.244044,5.786885 -9.947169,5.786885 -5.0625,0 -8.28125,-3.78125 -8.28125,-9.03125 V -40.71875 h 20.8125 v -5.8125 h -20.8125 v -15.484375 l -6.999999,1.65625 v 13.828125 h -10.234375 v 5.8125 h 10.234375 v 28.1875 c 0,8.484375 5.890624,14.375 14.640624,14.375 z"
                 id="path56"
                 sodipodi:nodetypes="sccssccccccccccss"
                 style="display:inline;fill:#ababab;fill-opacity:1" />
            </g>
          </g>
        </g>
        <g
           fill="#000000"
           fill-opacity="1"
           id="g61"
           transform="matrix(0.29673811,0,0,0.29673811,-33.732977,91.333158)"
           style="fill:#ababab;fill-opacity:1">
          <g
             transform="translate(566.52512,109.61812)"
             id="g60"
             style="display:inline;fill:#ababab;fill-opacity:1">
            <g
               id="g59"
               style="fill:#ababab;fill-opacity:1">
              <path
                 d="m 30.099985,1.84375 c 11.064357,0 20.353771,-3.3458029 23.57189,-11.2749819 l -6.452826,-2.6375301 c -2.737059,5.3745898 -9.289414,7.1610981 -17.019534,7.1610981 -10.666239,0 -18.57883,-7.1329431 -19.657065,-17.4176521 h 41.57013 c 0.09953,-0.978707 0.09953,-2.040354 0.09953,-2.936119 -0.199059,-15.244593 -9.687533,-26.20942 -24.169067,-26.20942 -14.664004,0 -25.2307135,10.964827 -25.2307135,26.126479 0,15.74224 11.5454155,27.188126 27.2876555,27.188126 z M 10.641979,-28.877671 c 1.360236,-9.388945 8.11165,-15.742241 17.301535,-15.742241 9.007415,0 15.360711,5.673179 16.339417,15.742241 z"
                 id="path58"
                 sodipodi:nodetypes="sccscccssscscc"
                 style="fill:#ababab;fill-opacity:1;stroke-width:1.06165" />
            </g>
          </g>
        </g>
      </g>
      <g
         id="g2">
        <path
           style="fill:#ababab;fill-opacity:1;fill-rule:evenodd;stroke:#ababab;stroke-width:1.50151;stroke-linecap:round;stroke-dasharray:none;stroke-opacity:1"
           d="m 44.095466,91.827155 5.434154,5.478133 4.289097,0.116584 3.227188,3.659868 0.120494,3.91978 1.628323,2.22494 0.08907,11.52878 -3.0313,3.88017 -0.02396,1.6076 -16.745148,10.04384 -18.290595,-10.70474 -3.412903,-6.53416 1.638202,-2.87356 0.118686,-7.72222 2.221185,-2.12768 v -5.03548 l 8.687318,-3.280016 0.444314,-0.445722 z"
           id="path412"
           sodipodi:nodetypes="ccccccccccccccccccc" />
        <path
           style="fill:#026c02;fill-opacity:1;stroke:none;stroke-width:0.0579098;stroke-dasharray:none;stroke-opacity:1"
           d="m 38.250546,131.99529 c -0.410946,-0.2399 -1.450791,-0.84446 -2.310844,-1.34347 -1.866982,-1.08329 -3.025694,-1.76477 -5.27021,-3.09954 -2.040014,-1.21321 -3.308549,-1.95343 -5.21229,-3.04162 -3.686016,-2.10696 -3.237791,-1.7998 -3.585891,-2.45743 -0.41332,-0.78076 -1.19764,-2.3071 -2.057715,-4.00446 -0.706666,-1.39456 -0.706666,-1.39456 -0.537522,-1.67952 0.352688,-0.59423 1.307057,-2.14464 1.410777,-2.29195 0.102861,-0.14597 0.108286,-0.32763 0.108286,-3.60043 v -3.4467 l 1.013463,-0.97084 1.013531,-0.97084 v -2.29763 -2.29762 l 1.143791,-0.42004 c 0.629102,-0.231015 2.381784,-0.832311 3.894744,-1.336212 2.75093,-0.916183 2.75093,-0.916183 2.889329,-1.237014 0.125694,-0.291402 0.162995,-0.328717 0.405453,-0.40676 0.382982,-0.123252 4.159741,-1.181829 5.595115,-1.568243 0.668935,-0.180085 1.854706,-0.509125 2.635138,-0.731223 3.189096,-0.907611 4.117421,-1.153763 4.18653,-1.110017 0.03956,0.02507 1.163911,1.1597 2.498617,2.521404 1.334615,1.361723 2.44185,2.47674 2.460456,2.477821 0.01808,0.0011 0.906917,0.0255 1.974025,0.05419 l 1.940093,0.0522 0.521245,0.549845 c 0.286677,0.302409 0.940849,0.992139 1.453707,1.532739 0.877008,0.92442 0.934723,0.99922 0.970103,1.25733 0.02035,0.15095 0.03753,1.02188 0.03753,1.93541 0,1.8886 -0.104895,1.56195 0.906849,2.82295 0.259843,0.32385 0.552963,0.70599 0.651483,0.84918 0.179272,0.26036 0.179272,0.26036 0.179272,5.31903 0,4.65481 -0.0068,5.07011 -0.09811,5.20187 -0.05381,0.0788 -0.607603,0.77857 -1.230647,1.55513 -1.852559,2.30907 -1.643853,1.94895 -1.597712,2.75672 l 0.04001,0.69616 -2.821193,1.67952 c -3.606304,2.14696 -9.068061,5.42298 -10.977544,6.58448 l -1.482554,0.90179 z m 0.310346,-2.32809 c -0.02826,-0.78764 -0.04386,-0.88941 -0.17475,-1.11486 -0.576858,-0.99325 -2.666223,-5.12638 -3.258047,-6.44494 -1.172998,-2.61333 -2.023805,-4.47371 -2.463281,-5.38604 -0.265382,-0.55104 -0.309374,-0.60632 -0.905425,-1.13889 l -0.626548,-0.55974 -0.0373,0.38599 c -0.02035,0.2123 -0.05607,0.8942 -0.0789,1.51533 l -0.0416,1.12933 2.128046,3.53279 c 1.170444,1.94304 2.47307,4.10614 2.894755,4.8069 0.809662,1.34564 1.464649,2.40751 2.067346,3.35145 0.200748,0.31435 0.388407,0.62057 0.417163,0.68049 0.02894,0.0599 0.06511,0.10894 0.08071,0.10894 0.01582,0 0.01582,-0.39004 -0.0045,-0.86676 z m 3.342234,-1.27608 c 1.045972,-1.29467 2.068771,-2.82075 3.35763,-5.00961 0.375046,-0.63705 0.770417,-1.30162 0.878568,-1.47681 0.196453,-0.31853 0.196453,-0.31853 -0.363111,-0.85424 -0.307769,-0.29464 -1.487866,-1.32814 -1.506607,-1.32662 -0.01809,0.002 -0.932802,0.41877 -1.362828,1.29844 -0.430004,0.87969 -0.705558,2.14296 -1.0091,2.91933 -0.526015,2.0157 -1.585392,6.05714 -1.585392,6.10248 0,0.099 1.092587,-1.03626 1.59084,-1.65297 z m -5.272945,0.99903 c -0.05765,-0.0876 -0.272479,-0.43291 -0.477568,-0.76737 -0.205044,-0.33445 -0.614385,-0.99902 -0.909472,-1.47682 -0.295131,-0.47779 -1.10814,-1.80693 -1.80669,-2.95364 -0.698572,-1.14671 -1.567849,-2.57253 -1.93166,-3.16851 -0.363811,-0.59597 -0.690276,-1.08463 -0.725316,-1.0859 -0.03527,-0.002 -0.194871,0.14102 -0.35547,0.31623 -0.311001,0.33954 -0.427087,0.378 -0.705942,0.23379 -0.180402,-0.0933 -0.235766,-0.19355 -0.235766,-0.42667 0,-0.11633 0.0997,-0.24807 0.404254,-0.53384 l 0.404165,-0.3794 -0.354452,-0.58504 c -0.341996,-0.56465 -0.369689,-0.59365 -0.795081,-0.83138 -0.475489,-0.26575 -2.752559,-1.58509 -3.21116,-1.86057 -0.154179,-0.0925 -0.260679,-0.13453 -0.236987,-0.0933 0.232827,0.40446 2.120675,3.03211 5.145261,7.16178 0.411376,0.56165 0.999696,1.37301 1.307397,1.80302 1.618579,2.26198 2.585471,3.55775 2.817327,3.77552 0.156891,0.14746 1.614939,1.01691 1.721733,1.02677 0.02735,0.003 0.0045,-0.0671 -0.05448,-0.15468 z m 3.33127,-1.19313 c 0.873346,-2.7039 1.580351,-6.91589 2.203191,-13.12623 0.311883,-3.11027 0.413546,-3.90759 0.511999,-4.01723 0.158473,-0.1766 0.34082,-0.2191 0.555245,-0.12951 0.315727,0.13193 0.326894,0.24715 0.174751,1.805 -0.07438,0.76238 -0.229075,2.35882 -0.343533,3.54765 -0.114391,1.18882 -0.24083,2.43326 -0.280799,2.76541 -0.04001,0.33216 -0.05833,0.6024 -0.04069,0.60054 0.01809,-0.002 0.220191,-0.24844 0.449989,-0.54796 0.413252,-0.53839 2.626774,-2.89568 2.712295,-3.4275 0.04747,-0.29586 0.22539,-4.11353 0.22539,-4.11353 l 1.027886,-4.79479 0.643909,-6.52767 c 0,0 -2.811449,1.42369 -3.339996,1.66815 l -4.396208,2.47129 c -0.241825,0.35858 -0.570618,0.83673 -0.730764,1.06257 -0.291176,0.41059 -0.291176,0.41059 -0.231652,4.89159 0.03278,2.46455 0.07912,4.51615 0.103313,4.55914 0.02419,0.043 0.08681,-0.46423 0.139258,-1.12715 0.09246,-1.16887 0.09992,-1.20924 0.24508,-1.33561 0.08229,-0.0717 0.214538,-0.1303 0.293979,-0.1303 0.223581,0 0.480507,0.1598 0.521878,0.32468 0.04137,0.16498 0.04047,0.18515 -0.238253,4.68491 -0.291673,4.711 -0.361958,6.18141 -0.463847,9.70069 -0.01808,0.62113 -0.04566,1.33747 -0.06172,1.59187 -0.01809,0.28713 -0.009,0.44087 0.02532,0.4054 0.02962,-0.0314 0.162317,-0.39207 0.294454,-0.80143 z m -8.436133,-2.59603 c -0.666064,-0.93403 -1.702631,-2.3628 -2.303497,-3.17506 -0.600866,-0.81225 -1.930349,-2.63511 -1.930349,-2.63511 l -2.650127,-3.44101 -1.918029,1.29311 -1.446428,1.008 2.093254,3.28868 2.558502,1.69517 2.78527,1.58797 1.208989,0.55822 c 0,0 2.760674,1.56577 2.793477,1.5362 0.0113,-0.01 -0.525021,-0.78214 -1.191062,-1.71617 z m 21.229546,-2.55086 c 0,0 -1.478055,-0.74098 -3.350011,-1.41218 -0.106704,-0.0383 -0.541456,0.0899 -0.955567,0.15318 -0.414111,0.0633 -0.826052,0.13011 -0.915394,0.14855 -0.186054,0.0384 -0.642553,0.70681 -1.775629,2.6001 -0.362228,0.6052 -0.732347,1.20932 -0.822548,1.34247 -0.251953,0.37186 -2.07831,3.51752 -2.07831,3.51752 0.523709,-0.29337 1.626988,-1.14615 1.626988,-1.14615 z m -14.406543,1.50416 c 0.16096,-0.76447 0.165481,-1.45478 0.02532,-3.74996 -0.134962,-2.20395 -0.317218,-6.10621 -0.433033,-9.26632 -0.107156,-2.92338 -0.06624,-2.659 -0.510416,-3.29918 -0.745889,-1.07508 -0.968362,-1.33491 -0.906623,-1.05889 0.01356,0.0558 0.0477,0.42711 0.07822,0.82528 0.03029,0.39816 0.111452,1.35986 0.17995,2.13711 0.137902,1.56423 0.131346,1.62357 -0.194192,1.77885 -0.179046,0.0854 -0.209113,0.0851 -0.379952,-0.003 -0.101957,-0.0528 -0.206853,-0.15332 -0.23267,-0.22349 -0.02645,-0.0701 -0.07912,-0.50543 -0.118233,-0.9673 -0.03934,-0.46186 -0.107382,-1.20461 -0.151466,-1.65056 -0.04408,-0.44594 -0.10806,-1.25385 -0.142196,-1.79535 -0.03391,-0.5415 -0.07347,-1.03942 -0.08749,-1.1065 -0.01808,-0.083 -0.242774,-0.20147 -0.378596,-0.28032 -0.564401,-0.32785 -1.185591,-0.54792 -1.791928,-0.78962 -0.129763,-0.0517 -0.384586,-0.15126 -0.394646,-0.1412 -0.03888,0.0389 0.292848,3.14861 0.803355,7.52995 0.27413,2.35264 0.683177,4.51656 1.149601,6.08101 0.525155,1.76169 1.900643,5.52047 1.912489,5.22616 0.009,-0.24802 -0.621528,-6.27787 -0.725655,-6.92888 -0.04634,-0.28953 0.138806,-0.52698 0.410698,-0.52698 0.408911,0 0.514327,0.14834 0.575862,0.8108 0.02261,0.2389 0.115295,1.0468 0.206853,1.79535 0.09156,0.74855 0.222451,1.81707 0.290474,2.37449 0.06827,0.55743 0.200297,1.45655 0.293572,1.99806 0.09314,0.54149 0.200749,1.18652 0.238683,1.43338 0.03798,0.24686 0.08613,0.44883 0.107156,0.44883 0.02035,0 0.0997,-0.29319 0.175203,-0.65153 z m 15.479959,-4.41121 c 0.322395,-0.34775 0.622229,-0.68277 0.666177,-0.74448 0.07551,-0.10593 0.07234,-0.1081 -0.05787,-0.0388 -0.275034,0.14649 -1.109813,0.70066 -1.625994,1.07954 -0.528162,0.38768 -0.528162,0.38768 -0.272841,0.60928 0.255231,0.22159 0.255231,0.22159 0.479784,-0.0258 0.123433,-0.13609 0.488284,-0.53195 0.810838,-0.87971 z m -4.390783,0.36729 c 0.380246,-0.0366 0.701308,-0.0759 0.713561,-0.0872 0.01808,-0.0167 -2.729319,-3.70205 -2.729319,-3.70205 l -1.931298,2.24285 c 0,0 0.725429,0.7626 1.177972,1.22251 0.44879,0.45618 0.44879,0.45618 1.263313,0.42333 0.447909,-0.0181 1.12557,-0.0628 1.505771,-0.0995 z m 4.911055,-2.96094 c 0.163674,-0.13383 0.302366,-0.245 0.308131,-0.24702 0.0045,-0.002 -0.0529,-0.43329 -0.130441,-0.95838 -0.07754,-0.52509 -0.157569,-1.20513 -0.177916,-1.5112 -0.03414,-0.51789 -0.02826,-0.56511 0.08704,-0.6805 0.08364,-0.0837 0.194644,-0.12339 0.341136,-0.12215 0.238705,0.002 0.364964,0.0753 0.470086,0.2726 0.06488,0.12192 0.18108,1.07791 0.271847,2.23619 0.04001,0.51258 0.04001,0.51258 0.192157,0.36051 0.151918,-0.15207 0.151918,-0.15207 0.133154,-3.61059 -0.009,-1.90219 -0.02351,-3.46157 -0.02894,-3.4653 -0.0045,-0.004 -0.327415,0.34791 -0.715234,0.78142 -0.387797,0.43353 -1.153467,1.27036 -1.701546,1.85964 -1.277759,1.37382 -1.424228,1.56953 -1.783744,2.38303 -0.163899,0.371 -0.298003,0.68709 -0.298003,0.70241 0,0.0154 0.319186,0.30152 0.709447,0.636 0.390216,0.33448 0.970057,0.8326 1.288587,1.10693 0.318552,0.27433 0.614634,0.499 0.657948,0.49927 0.0434,2.6e-4 0.21273,-0.10901 0.376517,-0.24284 z m -1.130272,1.27761 -3.682421,-3.65327 -1.386904,0.84531 2.919442,4.05879 z m -30.597757,-1.93636 c 0.1058,-0.0502 0.340685,-0.24677 0.521946,-0.43681 l 0.329584,-0.34554 -0.65797,-0.52274 c -0.715008,-0.56803 -0.971821,-0.72949 -1.027638,-0.64602 -0.442686,0.66185 -1.05906,1.64653 -1.041585,1.66401 0.04567,0.0457 1.35695,0.36795 1.518318,0.37311 0.09065,0.003 0.2515,-0.0358 0.357345,-0.086 z m 7.024226,-1.16836 c -0.610316,-1.46475 -0.910217,-2.07084 -1.015271,-2.05128 -0.05652,0.0106 -0.519798,0.14498 -1.029446,0.29879 -0.509602,0.15377 -1.02549,0.29813 -1.1463,0.32075 -0.123433,0.0231 -0.21047,0.0699 -0.198488,0.10662 0.0113,0.036 0.175655,0.1594 0.364512,0.27416 0.516972,0.31433 3.072467,1.61562 3.172706,1.61562 0.06805,0 0.03527,-0.12599 -0.147623,-0.56467 z m 3.863705,0.0956 -1.196849,-8.70182 -0.07845,-2.01735 c 0,0 -1.912241,0.002 -2.227199,0.18786 -0.31498,0.18587 -2.181669,2.01696 -2.332343,2.10279 -0.273926,0.15608 -0.273926,0.15608 -0.137901,0.51629 0.122755,0.32483 0.610858,1.47682 1.669286,3.93947 0.368468,0.85728 0.368468,0.85728 0.858651,1.2432 0.795081,0.62602 1.467249,1.30611 1.467249,1.30611 z m 19.371674,-5.40885 2.57453,-2.60523 -2.278675,-3.66106 c -0.0911,-0.14635 0.164125,-0.0965 -0.08704,0.0856 -0.456974,0.33101 -3.840126,1.21242 -4.088032,1.9074 -0.245284,0.68761 -1.037471,3.28978 -1.374313,4.18475 -0.9706,2.57914 -0.279555,3.55045 -0.383637,3.78584 -0.0685,0.15463 1.87234,-0.16935 1.87234,-0.15746 0,0.0217 3.764846,-3.53981 3.764846,-3.53981 z m -26.532467,2.61005 1.758831,-1.24708 -1.472675,-3.82692 -1.864925,-1.70609 -1.745651,0.6383 -1.059739,1.75631 -0.06872,2.93155 0.186958,2.16412 1.747483,1.48496 2.518556,-2.19516 z m 11.690246,-8.21363 c 0.284755,-0.3902 0.812759,-1.12644 1.173405,-1.63609 0.360715,-0.50965 0.879721,-1.22674 1.15349,-1.59355 0.2737,-0.36681 0.745278,-1.01366 1.047802,-1.43745 0.302615,-0.423788 0.733704,-1.022798 0.957895,-1.331133 1.294285,-1.779598 1.764167,-2.449706 1.764167,-2.515899 0,-0.04085 -0.217025,-0.290208 -0.482474,-0.554147 -0.438233,-0.435945 -0.489754,-0.470949 -0.563316,-0.382301 -0.04454,0.05367 -0.498571,0.706377 -1.008942,1.45045 -1.267902,1.848585 -4.259866,6.17416 -4.994135,7.22025 -0.330602,0.47092 -0.611718,0.88792 -0.624829,0.92663 -0.01809,0.0568 0.865772,0.54028 1.021872,0.55836 0.02035,0.003 0.270309,-0.31492 0.555065,-0.70512 z m -7.33984,-1.17937 c 0.204366,-0.26952 -0.594762,-2.08655 -0.564491,-2.12597 0.04001,-0.0523 0.906623,-2.807524 0.906623,-2.807524 l -5.958948,2.004304 -0.956087,0.82896 -0.01583,1.51092 c 0,0 1.81e-4,1.52657 0.01809,1.54569 0.01809,0.0192 1.472606,0.67164 1.472606,0.67164 l 1.317886,0.83505 c 0,0 1.911721,-1.06976 1.954719,-1.1196 z m 23.779955,-1.95478 -1.77,-1.769088 c 0,0 -2.36293,2.650088 -2.820514,3.453178 -0.457675,0.80307 -0.847755,1.50098 -0.866903,1.5509 -0.03323,0.0863 5.457417,-3.23499 5.457417,-3.23499 z m -18.114985,1.62817 c 0.487674,-0.70862 1.300885,-1.88782 1.807165,-2.62043 0.506256,-0.73262 1.149736,-1.667637 1.429993,-2.077824 0.280075,-0.410175 0.866722,-1.256022 1.303417,-1.879658 0.436741,-0.623638 0.786694,-1.141247 0.777651,-1.150249 -0.009,-0.0088 -0.340187,0.07564 -0.736054,0.188133 -0.537364,0.152641 -0.961987,0.165776 -0.961987,0.165776 l -4.056248,1.094436 -3.390228,0.661192 c 0,0 -1.297879,3.257974 -1.36961,3.504684 -0.130441,0.44856 -0.130441,0.44856 0.39259,1.15828 0.287671,0.39036 0.582916,0.77748 0.656162,0.86028 0.085,0.0962 0.436175,0.27284 0.972929,0.48936 0.461811,0.18633 1.126428,0.46317 1.476811,0.61519 0.350338,0.15201 0.676124,0.27704 0.723915,0.27782 0.04883,2.8e-4 0.474969,-0.56249 0.973494,-1.28698 z m 12.189879,0.31873 c 0.26988,-0.42359 2.068115,-3.42996 2.068115,-3.45766 0,-0.0174 -0.416937,-0.0317 -0.92654,-0.0317 -0.758978,0 -0.926652,0.0149 -0.926652,0.0817 0,0.14306 -0.346902,3.24174 -0.381468,3.40766 -0.01808,0.0876 -0.0113,0.15927 0.01583,0.15927 0.02713,0 0.09472,-0.0717 0.150561,-0.15927 z m -4.534087,-2.8974 c 0.748488,-0.35077 1.757995,-0.829434 2.243227,-1.063695 L 47.144399,99.231173 46.29739,98.37336 c -0.846918,-0.857819 -0.846918,-0.857819 -1.052233,-0.691626 -0.112808,0.0914 -0.25618,0.234277 -0.318349,0.317477 -0.112356,0.150584 -0.112356,0.152008 0.0113,0.308506 0.248177,0.315487 0.180628,0.446868 -0.55407,1.076716 -0.862043,0.739067 -2.530538,2.254407 -2.584432,2.347247 -0.02645,0.0454 0.155987,-0.0199 0.405385,-0.1453 0.249308,-0.12531 1.065775,-0.51481 1.814308,-0.86558 z"
           id="path413"
           sodipodi:nodetypes="cccccscsscccccccccsssscccccccccccccccccccccccccccccccccccccccccccccccccccccccccccccccccccccccccccccccccccccccccccccccccccccccccccccccccccccccccccccccccccccccccccccccccccccccccccccccccccccccccccccccccccccccccccccsccccccccccccccccccccccccccccccccccccccccccccccccsscccccccccccccccccccccccccccscccccccccccccccccccccccccccccc" />
        <path
           style="display:inline;fill:#ababab;fill-opacity:1;fill-rule:evenodd;stroke:none;stroke-width:2.34421;stroke-linecap:round;stroke-opacity:1"
           d="m 53.170806,126.47152 18.283405,1.51921 -23.393649,1.63085 16.124886,4.7833 -17.424189,-0.63219 4.457337,2.82408 -11.297294,-2.28928 10.565264,-8.07156 z"
           id="path414"
           sodipodi:nodetypes="ccccccccc" />
        <path
           style="display:inline;fill:#ababab;fill-opacity:1;fill-rule:evenodd;stroke:none;stroke-width:2.34421;stroke-linecap:round;stroke-opacity:1"
           d="m 25.424128,126.35596 -15.24998,-2.30412 13.861855,5.00512 -16.9986388,5.00545 20.4017528,-2.09057 -5.421449,4.72801 7.876683,-3.33985 4.985906,3.82738 -0.01356,-4.83189"
           id="path415" />
      </g>
    </g>
  </g>
</svg>
