<?xml version="1.0" encoding="UTF-8" standalone="no"?>
<!-- Created with Inkscape (http://www.inkscape.org/) -->

<svg
   width="210mm"
   height="297mm"
   viewBox="0 0 210 297"
   version="1.1"
   id="svg1"
   inkscape:version="1.3 (0e150ed6c4, 2023-07-21)"
   sodipodi:docname="tektite-logo-inkscape.svg"
   xmlns:inkscape="http://www.inkscape.org/namespaces/inkscape"
   xmlns:sodipodi="http://sodipodi.sourceforge.net/DTD/sodipodi-0.dtd"
   xmlns="http://www.w3.org/2000/svg"
   xmlns:svg="http://www.w3.org/2000/svg">
  <sodipodi:namedview
     id="namedview1"
     pagecolor="#ffffff"
     bordercolor="#000000"
     borderopacity="0.25"
     inkscape:showpageshadow="2"
     inkscape:pageopacity="0.0"
     inkscape:pagecheckerboard="0"
     inkscape:deskcolor="#d1d1d1"
     inkscape:document-units="mm"
     inkscape:zoom="0.99999999"
     inkscape:cx="327"
     inkscape:cy="747.00001"
     inkscape:window-width="3834"
     inkscape:window-height="2081"
     inkscape:window-x="2560"
     inkscape:window-y="76"
     inkscape:window-maximized="1"
     inkscape:current-layer="layer1"
     inkscape:export-bgcolor="#ffffff00" />
  <defs
     id="defs1">
    <inkscape:path-effect
       effect="fillet_chamfer"
       id="path-effect131"
       is_visible="true"
       lpeversion="1"
       nodesatellites_param="F,0,0,1,0,7,0,1 @ F,0,0,1,0,7,0,1 @ F,0,0,1,0,7,0,1 @ F,0,0,1,0,7,0,1 @ F,0,0,1,0,7,0,1 @ F,0,0,1,0,7,0,1"
       radius="7"
       unit="px"
       method="auto"
       mode="F"
       chamfer_steps="1"
       flexible="false"
       use_knot_distance="true"
       apply_no_radius="true"
       apply_with_radius="true"
       only_selected="false"
       hide_knots="false" />
    <inkscape:path-effect
       effect="fillet_chamfer"
       id="path-effect86"
       is_visible="true"
       lpeversion="1"
       nodesatellites_param="F,0,0,1,0,7,0,1 @ F,0,0,1,0,7,0,1 @ F,0,0,1,0,7,0,1 @ F,0,0,1,0,7,0,1 @ F,0,0,1,0,7,0,1 @ F,0,0,1,0,7,0,1"
       radius="7"
       unit="px"
       method="auto"
       mode="F"
       chamfer_steps="1"
       flexible="false"
       use_knot_distance="true"
       apply_no_radius="true"
       apply_with_radius="true"
       only_selected="false"
       hide_knots="false" />
    <inkscape:path-effect
       effect="fillet_chamfer"
       id="path-effect63"
       is_visible="true"
       lpeversion="1"
       nodesatellites_param="F,0,0,1,0,7,0,1 @ F,0,0,1,0,7,0,1 @ F,0,0,1,0,7,0,1 @ F,0,0,1,0,7,0,1 @ F,0,0,1,0,7,0,1 @ F,0,0,1,0,7,0,1"
       radius="7"
       unit="px"
       method="auto"
       mode="F"
       chamfer_steps="1"
       flexible="false"
       use_knot_distance="true"
       apply_no_radius="true"
       apply_with_radius="true"
       only_selected="false"
       hide_knots="false" />
    <inkscape:path-effect
       effect="fillet_chamfer"
       id="path-effect379"
       is_visible="true"
       lpeversion="1"
       nodesatellites_param="F,0,0,1,0,7,0,1 @ F,0,0,1,0,7,0,1 @ F,0,0,1,0,7,0,1 @ F,0,0,1,0,7,0,1 @ F,0,0,1,0,7,0,1 @ F,0,0,1,0,7,0,1"
       radius="7"
       unit="px"
       method="auto"
       mode="F"
       chamfer_steps="1"
       flexible="false"
       use_knot_distance="true"
       apply_no_radius="true"
       apply_with_radius="true"
       only_selected="false"
       hide_knots="false" />
    <inkscape:path-effect
       effect="fillet_chamfer"
       id="path-effect218"
       is_visible="true"
       lpeversion="1"
       nodesatellites_param="F,0,0,1,0,7,0,1 @ F,0,0,1,0,7,0,1 @ F,0,0,1,0,7,0,1 @ F,0,0,1,0,7,0,1 @ F,0,0,1,0,7,0,1 @ F,0,0,1,0,7,0,1"
       radius="7"
       unit="px"
       method="auto"
       mode="F"
       chamfer_steps="1"
       flexible="false"
       use_knot_distance="true"
       apply_no_radius="true"
       apply_with_radius="true"
       only_selected="false"
       hide_knots="false" />
  </defs>
  <g
     inkscape:label="Layer 1"
     inkscape:groupmode="layer"
     id="layer1">
    <g
       id="g353"
       inkscape:label="simple-v-spikes"
       style="display:none">
      <path
         style="fill:#000000;fill-opacity:1;fill-rule:evenodd;stroke:none;stroke-width:0.889393;stroke-linecap:round;stroke-dasharray:none;stroke-opacity:1"
         d="m 61.939978,25.801628 5.58076,1.86413 -4.418144,-3.006308"
         id="path319"
         sodipodi:nodetypes="ccc" />
      <path
         style="fill:#000000;fill-opacity:1;fill-rule:evenodd;stroke:none;stroke-width:0.889393;stroke-linecap:round;stroke-dasharray:none;stroke-opacity:1"
         d="m 62.611171,19.182163 6.499535,-0.18179 -6.492328,1.115149"
         id="path320" />
      <path
         style="fill:#000000;fill-opacity:1;fill-rule:evenodd;stroke:none;stroke-width:0.889393;stroke-linecap:round;stroke-dasharray:none;stroke-opacity:1"
         d="M 55.401413,9.5612465 59.726753,4.7236246 56.898518,10.53309"
         id="path321"
         sodipodi:nodetypes="ccc" />
      <path
         style="fill:#000000;fill-opacity:1;fill-rule:evenodd;stroke:none;stroke-width:0.889393;stroke-linecap:round;stroke-dasharray:none;stroke-opacity:1"
         d="M 60.690098,11.389557 65.750863,8.9234858 60.687621,12.489438"
         id="path322"
         sodipodi:nodetypes="ccc" />
      <path
         style="fill:#000000;fill-opacity:1;fill-rule:evenodd;stroke:none;stroke-width:0.889393;stroke-linecap:round;stroke-dasharray:none;stroke-opacity:1"
         d="M 49.54208,9.1737452 48.855094,2.379337 50.671061,8.8637351"
         id="path324" />
      <path
         style="fill:#000000;fill-opacity:1;fill-rule:evenodd;stroke:none;stroke-width:0.889393;stroke-linecap:round;stroke-dasharray:none;stroke-opacity:1"
         d="m 42.01907,11.81389 -6.275747,-3.1835302 5.57493,4.4519722"
         id="path325"
         sodipodi:nodetypes="ccc" />
      <path
         style="fill:#000000;fill-opacity:1;fill-rule:evenodd;stroke:none;stroke-width:0.889393;stroke-linecap:round;stroke-dasharray:none;stroke-opacity:1"
         d="m 39.807309,20.793498 -5.724231,-0.41461 5.255022,1.975971"
         id="path326"
         sodipodi:nodetypes="ccc" />
      <path
         style="fill:#000000;fill-opacity:1;fill-rule:evenodd;stroke:none;stroke-width:0.889393;stroke-linecap:round;stroke-dasharray:none;stroke-opacity:1"
         d="m 55.703559,30.149146 3.969098,3.00549 -3.269815,-3.580769"
         id="path327" />
      <path
         style="fill:#000000;fill-opacity:1;fill-rule:evenodd;stroke:none;stroke-width:0.889393;stroke-linecap:round;stroke-dasharray:none;stroke-opacity:1"
         d="m 59.363709,28.620199 2.258422,1.684854 -1.610736,-2.254576"
         id="path328"
         sodipodi:nodetypes="ccc" />
      <path
         style="fill:#000000;fill-opacity:1;fill-rule:evenodd;stroke:none;stroke-width:0.889393;stroke-linecap:round;stroke-dasharray:none;stroke-opacity:1"
         d="m 41.36198,26.488655 -2.947593,3.047229 4.493001,-2.087741"
         id="path329"
         sodipodi:nodetypes="ccc" />
      <path
         style="fill:#000000;fill-opacity:1;fill-rule:evenodd;stroke:none;stroke-width:0.889393;stroke-linecap:round;stroke-dasharray:none;stroke-opacity:1"
         d="m 45.767774,28.633149 -1.87351,4.1425 3.171112,-3.128778"
         id="path330"
         sodipodi:nodetypes="ccc" />
    </g>
    <g
       id="g11"
       transform="matrix(1.5432344,0,0,1.5432344,25.054696,2.0230942)">
      <g
         id="g3">
        <g
           fill="#000000"
           fill-opacity="1"
           id="g334"
           transform="matrix(0.13094594,0,0,0.13094594,-7.49495,11.118232)"
           style="display:inline"
           inkscape:label="E">
          <g
             transform="translate(370.4583,109.61812)"
             id="g333">
            <g
               id="g332">
              <path
                 d="m 3.4900361,152.62836 c 11.0643559,0 20.3537709,-5.57365 23.5718899,-13.50283 L 20.6091,136.488 c -2.73706,5.37459 -9.289415,9.38895 -17.0195345,9.38895 -10.6662385,0 -18.5788295,-7.13294 -19.6570655,-17.41765 h 41.570131 c 0.09953,-0.97872 0.09953,-2.04036 0.09953,-2.93613 -0.199058,-15.24459 -9.687532,-26.209417 -24.169066,-26.209417 -14.664005,0 -25.230714,10.964827 -25.230714,26.126487 0,15.74223 11.545416,27.18812 27.2876561,27.18812 z M -15.96797,121.90694 c 1.360235,-9.38895 8.11165,-15.74224 17.301535,-15.74224 9.007414,0 15.36071,5.67318 16.339416,15.74224 z m 0,0"
                 id="path332"
                 style="stroke-width:1.06165" />
            </g>
          </g>
        </g>
        <g
           fill="#000000"
           fill-opacity="1"
           id="g337"
           transform="matrix(0.13094594,0,0,0.13094594,-10.463433,31.119178)">
          <g
             transform="translate(423.34475,109.61812)"
             id="g336">
            <g
               id="g335">
              <path
                 d="m 4.609375,0 h 7 v -16.125 l 6.734375,-7 L 33.8125,0 h 8.484375 L 23.125,-28.1875 40.71875,-46.53125 h -9.296875 l -19.71875,21.015625 h -0.09375 V -67.71875 h -7 z m 0,0"
                 id="path334" />
            </g>
          </g>
        </g>
        <g
           fill="#000000"
           fill-opacity="1"
           id="g340"
           transform="matrix(0.13094594,0,0,0.13094594,-28.528134,30.877747)">
          <g
             transform="translate(465.63549,109.61812)"
             id="g339">
            <g
               id="g338">
              <path
                 d="m 24.875,1.84375 c 7.921875,0 15.015625,-4.96875 16.3125,-13.078125 l -5.71875,-2.40625 c -0.921875,6 -5.25,9.40625 -9.953125,9.40625 -5.0625,0 -8.28125,-3.78125 -8.28125,-9.03125 V -40.71875 h 20.8125 v -5.8125 h -20.8125 v -15.484375 l -7,1.65625 V -46.53125 H 0 v 5.8125 h 10.234375 v 28.1875 c 0,8.484375 5.890625,14.375 14.640625,14.375 z m 0,0"
                 id="path337" />
            </g>
          </g>
        </g>
        <g
           fill="#000000"
           fill-opacity="1"
           id="g343"
           transform="matrix(0.13094594,0,0,0.13094594,-10.463433,31.119178)"
           style="display:inline">
          <g
             transform="translate(507.18912,109.61812)"
             id="g342">
            <g
               id="g341">
              <path
                 d="m 8.84375,-55.5625 c 3.046875,0 5.25,-2.03125 5.25,-5.15625 0,-3.046875 -2.203125,-5.0625 -5.25,-5.0625 -3.125,0 -5.15625,2.015625 -5.15625,5.0625 0,3.125 2.03125,5.15625 5.15625,5.15625 z M 5.25,0 h 7 v -46.53125 h -7 z m 0,0"
                 id="path340" />
            </g>
          </g>
        </g>
        <g
           fill="#000000"
           fill-opacity="1"
           id="g346"
           transform="matrix(0.13094594,0,0,0.13094594,-10.463433,31.119178)"
           style="display:inline">
          <g
             transform="translate(524.97149,109.61812)"
             id="g345">
            <g
               id="g344">
              <path
                 d="m 24.875,1.84375 c 7.921875,0 15.009669,-1.34938536 16.306544,-9.4587604 l -5.71875,-2.4062496 c -0.921875,5.9999996 -5.244044,5.786885 -9.947169,5.786885 -5.0625,0 -8.28125,-3.78125 -8.28125,-9.03125 V -40.71875 h 20.8125 v -5.8125 h -20.8125 v -15.484375 l -7,1.65625 V -46.53125 H 0 v 5.8125 h 10.234375 v 28.1875 c 0,8.484375 5.890625,14.375 14.640625,14.375 z"
                 id="path343"
                 sodipodi:nodetypes="sccssccccccccccss" />
              <path
                 d="m -37.4951,1.84375 c 7.921875,0 15.009669,-1.34938497 16.306544,-9.45876 l -5.71875,-2.40625 c -0.921875,6 -5.244044,5.786885 -9.947169,5.786885 -5.0625,0 -8.28125,-3.78125 -8.28125,-9.03125 V -40.71875 h 20.8125 v -5.8125 h -20.8125 v -15.484375 l -6.999999,1.65625 v 13.828125 h -10.234375 v 5.8125 h 10.234375 v 28.1875 c 0,8.484375 5.890624,14.375 14.640624,14.375 z"
                 id="path344"
                 sodipodi:nodetypes="sccssccccccccccss"
                 style="display:inline" />
            </g>
          </g>
        </g>
        <g
           fill="#000000"
           fill-opacity="1"
           id="g349"
           transform="matrix(0.13094594,0,0,0.13094594,-10.463433,31.119178)">
          <g
             transform="translate(566.52512,109.61812)"
             id="g348"
             style="display:inline">
            <g
               id="g347">
              <path
                 d="m 30.099985,1.84375 c 11.064357,0 20.353771,-3.3458029 23.57189,-11.2749819 l -6.452826,-2.6375301 c -2.737059,5.3745898 -9.289414,7.1610981 -17.019534,7.1610981 -10.666239,0 -18.57883,-7.1329431 -19.657065,-17.4176521 h 41.57013 c 0.09953,-0.978707 0.09953,-2.040354 0.09953,-2.936119 -0.199059,-15.244593 -9.687533,-26.20942 -24.169067,-26.20942 -14.664004,0 -25.2307135,10.964827 -25.2307135,26.126479 0,15.74224 11.5454155,27.188126 27.2876555,27.188126 z M 10.641979,-28.877671 c 1.360236,-9.388945 8.11165,-15.742241 17.301535,-15.742241 9.007415,0 15.360711,5.673179 16.339417,15.742241 z"
                 id="path346"
                 sodipodi:nodetypes="sccscccssscscc"
                 style="stroke-width:1.06165" />
            </g>
          </g>
        </g>
      </g>
      <g
         id="g412">
        <path
           style="fill:#000000;fill-opacity:1;fill-rule:evenodd;stroke:#000000;stroke-width:0.920053;stroke-linecap:round;stroke-dasharray:none;stroke-opacity:1"
           d="m 54.775389,7.0497904 3.329785,3.3567366 2.628155,0.07143 1.97746,2.242594 0.07384,2.40185 0.99776,1.363338 0.05451,7.064278 -1.857433,2.37758 -0.01472,0.985058 -10.260626,6.154387 -11.20759,-6.559349 -2.091272,-4.003819 1.003813,-1.760778 0.07269,-4.731807 1.361041,-1.303742 V 11.622055 L 46.16597,9.6122206 46.438221,9.3391022 Z"
           id="path323"
           sodipodi:nodetypes="ccccccccccccccccccc" />
        <path
           style="fill:#84e584;fill-opacity:1;stroke:none;stroke-width:0.0354843;stroke-dasharray:none;stroke-opacity:1"
           d="M 51.193895,31.662889 C 50.942088,31.515887 50.304927,31.14544 49.77792,30.83967 48.633933,30.175885 47.923925,29.758308 46.548599,28.940423 45.298565,28.19703 44.52128,27.743455 43.354752,27.076665 c -2.258616,-1.291043 -1.983961,-1.10283 -2.197258,-1.505793 -0.25327,-0.478412 -0.733861,-1.413682 -1.260868,-2.453739 -0.433017,-0.854521 -0.433017,-0.854521 -0.329372,-1.029131 0.216115,-0.364114 0.800897,-1.314133 0.864461,-1.404394 0.063,-0.08944 0.06633,-0.200755 0.06633,-2.20617 v -2.111972 l 0.621003,-0.594883 0.621041,-0.594885 V 13.767823 12.35995 l 0.700856,-0.257381 c 0.385487,-0.141555 1.459444,-0.51 2.386508,-0.818766 1.68565,-0.561393 1.68565,-0.561393 1.770444,-0.757983 0.07707,-0.178556 0.09987,-0.201421 0.248443,-0.249242 0.234682,-0.07553 2.548888,-0.7241679 3.428419,-0.9609437 0.409885,-0.1103447 1.136472,-0.3119674 1.614683,-0.4480588 1.954122,-0.5561403 2.522959,-0.7069698 2.565313,-0.6801639 0.02427,0.015356 0.713176,0.7106073 1.531024,1.5449947 0.817782,0.8343977 1.496248,1.5176267 1.50765,1.5182877 0.01132,6.56e-4 0.555709,0.01562 1.209581,0.0332 l 1.188808,0.03199 0.319389,0.336918 c 0.175663,0.185301 0.576505,0.607938 0.89076,0.93919 0.537383,0.566443 0.572747,0.612277 0.594437,0.770433 0.01223,0.09249 0.02305,0.626158 0.02305,1.185927 0,1.157239 -0.06429,0.957085 0.555665,1.729764 0.159215,0.198442 0.33883,0.432595 0.399205,0.520336 0.109798,0.159536 0.109798,0.159536 0.109798,3.259245 0,2.852243 -0.0046,3.10672 -0.06005,3.187457 -0.03296,0.04826 -0.372314,0.477068 -0.754087,0.952908 -1.135161,1.414888 -1.00727,1.194225 -0.979005,1.689186 l 0.02453,0.426571 -1.72868,1.029131 c -2.209774,1.315556 -5.556479,3.322938 -6.726524,4.03465 l -0.908432,0.552575 z m 0.190167,-1.426546 C 51.366805,29.75372 51.35724,29.691357 51.27697,29.553214 50.923506,28.944595 49.64324,26.412015 49.280602,25.604063 48.561835,24.002743 48.040507,22.862788 47.771225,22.303757 47.608604,21.966107 47.581649,21.932235 47.216412,21.6059 l -0.383913,-0.342982 -0.0228,0.236521 c -0.01262,0.130086 -0.03432,0.54792 -0.04833,0.928522 l -0.02549,0.691997 1.303965,2.164722 c 0.717194,1.1906 1.515384,2.516046 1.773765,2.945439 0.496122,0.824543 0.897466,1.475204 1.266766,2.053606 0.122981,0.192618 0.238002,0.380255 0.255629,0.416972 0.0177,0.03671 0.03989,0.06676 0.04949,0.06676 0.0096,0 0.009,-0.238999 -0.0023,-0.531112 z m 2.04796,-0.781916 c 0.640919,-0.793315 1.267639,-1.728419 2.057396,-3.069646 0.229811,-0.390356 0.472072,-0.79757 0.538344,-0.904923 0.120418,-0.195178 0.120418,-0.195178 -0.222493,-0.523433 -0.188593,-0.180542 -0.911694,-0.813822 -0.923184,-0.812889 -0.01132,0.0011 -0.571576,0.256599 -0.835069,0.795622 -0.263492,0.539028 -0.432339,1.3131 -0.618331,1.788821 -0.322322,1.235124 -0.971453,3.711526 -0.971453,3.739304 0,0.06067 0.669489,-0.634967 0.97479,-1.012856 z m -3.231003,0.612154 c -0.03528,-0.05367 -0.166968,-0.265266 -0.292631,-0.470202 -0.125688,-0.20494 -0.376464,-0.612154 -0.557282,-0.904926 -0.180838,-0.29277 -0.679013,-1.107203 -1.107049,-1.809849 -0.428059,-0.702648 -0.960701,-1.576323 -1.183632,-1.941509 -0.22293,-0.365185 -0.422969,-0.66461 -0.444441,-0.665387 -0.02163,-0.0011 -0.119454,0.08641 -0.217818,0.193765 -0.190558,0.20806 -0.261701,0.231622 -0.432558,0.143262 -0.110527,-0.05716 -0.14447,-0.118608 -0.14447,-0.261446 0,-0.07128 0.0611,-0.152007 0.2477,-0.327113 l 0.247657,-0.232475 -0.217185,-0.358488 c -0.209562,-0.345992 -0.226535,-0.363755 -0.487188,-0.509426 -0.291365,-0.16284 -1.686633,-0.971268 -1.967643,-1.140067 -0.0944,-0.0567 -0.159739,-0.08243 -0.145213,-0.05718 0.142657,0.247831 1.299442,1.85793 3.15276,4.388389 0.252069,0.344152 0.612566,0.841316 0.801115,1.104805 0.991784,1.38603 1.584255,2.180018 1.726323,2.313455 0.09617,0.09036 0.989555,0.623115 1.054997,0.629156 0.01681,0.0017 0.0023,-0.04108 -0.03345,-0.09477 z m 2.041234,-0.731094 c 0.535154,-1.656813 0.968368,-4.23772 1.35001,-8.043116 0.191105,-1.905823 0.253401,-2.394382 0.313731,-2.461564 0.09717,-0.10821 0.208841,-0.134251 0.340228,-0.07936 0.193463,0.08084 0.200301,0.151442 0.107026,1.106018 -0.04565,0.467151 -0.140362,1.445372 -0.2105,2.173825 -0.07009,0.728455 -0.147573,1.490985 -0.172058,1.694512 -0.02453,0.203529 -0.03576,0.369121 -0.02492,0.367983 0.01093,-0.0011 0.134902,-0.152233 0.275725,-0.335762 0.253226,-0.329901 1.609571,-1.774333 1.661973,-2.100207 0.02911,-0.181292 0.138141,-2.520577 0.138141,-2.520577 l 0.629838,-2.938016 0.394551,-3.99984 c 0,0 -1.722718,0.872367 -2.046585,1.022163 l -2.693794,1.514287 c -0.148184,0.219719 -0.349642,0.51271 -0.447783,0.651091 -0.178413,0.251592 -0.178413,0.251592 -0.141935,2.99733 0.02009,1.510156 0.04854,2.767283 0.06327,2.793624 0.01485,0.02634 0.05312,-0.284459 0.08532,-0.690665 0.0567,-0.716224 0.06124,-0.740962 0.150171,-0.818396 0.05039,-0.04391 0.131474,-0.07984 0.180139,-0.07984 0.137022,0 0.294424,0.09792 0.319783,0.19895 0.02536,0.101092 0.02477,0.113455 -0.145999,2.870691 -0.17872,2.886672 -0.221794,3.787666 -0.284222,5.94411 -0.01093,0.380604 -0.02802,0.81954 -0.03781,0.975423 -0.01119,0.175942 -0.0055,0.270146 0.01551,0.24841 0.01813,-0.01926 0.09941,-0.240243 0.180425,-0.491077 z m -5.169246,-1.59072 c -0.408137,-0.572329 -1.04329,-1.447811 -1.411476,-1.945523 -0.368186,-0.497707 -1.182824,-1.614669 -1.182824,-1.614669 l -1.623877,-2.108481 -1.175265,0.792354 -0.886304,0.617649 1.282646,2.015146 1.567719,1.038718 1.706685,0.973036 0.740807,0.342049 c 0,0 1.691614,0.959428 1.711709,0.941307 0.0068,-0.006 -0.321705,-0.479254 -0.72982,-1.051586 z M 60.08144,26.181724 c 0,0 -0.905679,-0.454038 -2.052722,-0.865316 -0.06546,-0.02348 -0.331775,0.0551 -0.585526,0.09386 -0.25375,0.03877 -0.506168,0.07972 -0.560907,0.09103 -0.114002,0.02352 -0.393721,0.433096 -1.088024,1.593214 -0.221948,0.370841 -0.448745,0.741013 -0.504007,0.822603 -0.154386,0.227858 -1.273494,2.155365 -1.273494,2.155365 0.320896,-0.179763 0.996939,-0.702308 0.996939,-0.702308 z m -8.827629,0.921677 c 0.09864,-0.468427 0.101443,-0.891419 0.01551,-2.297798 -0.08265,-1.350469 -0.194381,-3.741589 -0.265349,-5.677953 -0.06564,-1.791302 -0.04059,-1.629304 -0.312749,-2.021576 -0.457044,-0.658756 -0.593367,-0.817972 -0.555534,-0.648837 0.0077,0.03416 0.02918,0.261715 0.04787,0.505691 0.01857,0.243976 0.06826,0.833258 0.110201,1.309519 0.08449,0.958484 0.08052,0.994842 -0.119024,1.089994 -0.109694,0.05232 -0.128174,0.05216 -0.232825,-0.002 -0.06252,-0.03234 -0.126716,-0.09395 -0.14257,-0.136937 -0.01616,-0.04299 -0.04852,-0.309699 -0.07245,-0.592711 -0.02405,-0.283009 -0.06575,-0.738131 -0.09283,-1.011385 -0.02707,-0.273251 -0.06627,-0.768296 -0.08711,-1.100106 -0.02074,-0.331801 -0.04498,-0.636906 -0.0536,-0.678006 -0.01093,-0.05086 -0.148752,-0.12345 -0.231974,-0.171769 -0.345841,-0.200889 -0.726478,-0.335739 -1.098007,-0.483842 -0.07953,-0.0317 -0.235664,-0.09269 -0.241824,-0.08652 -0.02381,0.02387 0.179441,1.929318 0.492255,4.613991 0.167973,1.441584 0.418622,2.767534 0.704417,3.726154 0.321791,1.079479 1.164627,3.382675 1.171879,3.202337 0.0059,-0.151973 -0.380833,-3.846776 -0.444638,-4.245684 -0.02837,-0.177411 0.08502,-0.32291 0.251655,-0.32291 0.250561,0 0.315152,0.0909 0.352853,0.496823 0.01376,0.146385 0.07068,0.641429 0.12682,1.100105 0.05615,0.458671 0.136279,1.113407 0.177999,1.454972 0.04179,0.341566 0.122734,0.892502 0.179878,1.224312 0.05712,0.331802 0.122955,0.727044 0.146262,0.878307 0.02331,0.151263 0.05281,0.275023 0.06564,0.275023 0.01288,0 0.0611,-0.179652 0.107351,-0.399229 z m 9.485367,-2.702974 c 0.197548,-0.213088 0.38127,-0.41837 0.408203,-0.456183 0.04629,-0.06491 0.0443,-0.06624 -0.03552,-0.02376 -0.16852,0.08976 -0.68004,0.429332 -0.996328,0.661489 -0.323627,0.237555 -0.323627,0.237555 -0.167187,0.373337 0.156397,0.135784 0.156397,0.135784 0.293986,-0.01584 0.07565,-0.08339 0.299206,-0.325955 0.496843,-0.539045 z m -2.690453,0.225056 c 0.233001,-0.02245 0.429719,-0.04649 0.437233,-0.05341 0.01093,-0.01028 -1.672392,-2.26844 -1.672392,-2.26844 l -1.183413,1.37431 c 0,0 0.444506,0.467286 0.721805,0.749097 0.275004,0.279522 0.275004,0.279522 0.774095,0.259396 0.274458,-0.01106 0.689694,-0.0385 0.922672,-0.06096 z m 3.009252,-1.814321 c 0.100311,-0.08201 0.185273,-0.150123 0.188811,-0.151362 0.0035,-0.0011 -0.03244,-0.265504 -0.07994,-0.587254 -0.04751,-0.321748 -0.09656,-0.738444 -0.109069,-0.92599 -0.02096,-0.317336 -0.01726,-0.34627 0.05337,-0.416976 0.05125,-0.05126 0.119285,-0.07561 0.209038,-0.07485 0.14626,0.0013 0.223629,0.04611 0.288044,0.167033 0.03977,0.0747 0.111008,0.660494 0.166575,1.370232 0.02456,0.314081 0.02456,0.314081 0.11771,0.220903 0.09308,-0.09318 0.09308,-0.09318 0.08152,-2.212396 -0.0061,-1.165568 -0.01442,-2.121084 -0.0177,-2.123369 -0.0033,-0.0022 -0.200629,0.213184 -0.438258,0.478817 -0.237631,0.265642 -0.706799,0.778415 -1.042635,1.139498 -0.782943,0.841809 -0.872696,0.96173 -1.092983,1.460205 -0.100428,0.227332 -0.182609,0.421015 -0.182609,0.430403 0,0.0094 0.195583,0.184757 0.434721,0.389713 0.239095,0.204952 0.594394,0.510175 0.789584,0.678267 0.195188,0.168097 0.376617,0.305767 0.403157,0.305932 0.0266,1.57e-4 0.130403,-0.0668 0.230706,-0.148803 z m -0.692577,0.782858 -2.25641,-2.238549 -0.849826,0.517964 1.788902,2.487033 z M 41.616569,22.407507 c 0.06484,-0.03076 0.208754,-0.151206 0.319826,-0.267654 l 0.201961,-0.211727 -0.403179,-0.320313 c -0.438128,-0.348058 -0.595485,-0.446992 -0.629692,-0.395851 -0.271247,0.405552 -0.648934,1.008914 -0.638232,1.019626 0.02802,0.02803 0.831478,0.225461 0.930361,0.228622 0.05557,0.0017 0.154103,-0.02193 0.218955,-0.05271 z m 4.304107,-0.715911 c -0.373974,-0.897528 -0.557739,-1.268914 -0.622111,-1.256924 -0.0346,0.0065 -0.318494,0.08884 -0.630784,0.183083 -0.312268,0.09423 -0.628381,0.182678 -0.702406,0.196542 -0.0756,0.01416 -0.128916,0.0428 -0.121628,0.06533 0.0072,0.02208 0.10769,0.09767 0.223366,0.167994 0.316769,0.192605 1.882653,0.989974 1.944076,0.989974 0.04168,0 0.02163,-0.0772 -0.09051,-0.346001 z m 2.367492,0.05855 -0.733362,-5.332057 -0.04809,-1.236135 c 0,0 -1.171737,0.0012 -1.364721,0.115108 -0.193005,0.113897 -1.336822,1.235894 -1.429153,1.288491 -0.167842,0.09564 -0.167842,0.09564 -0.08454,0.316353 0.07518,0.199038 0.374303,0.904924 1.022866,2.413918 0.22577,0.525304 0.22577,0.525304 0.526134,0.761774 0.487188,0.383596 0.899067,0.80032 0.899067,0.80032 z m 11.870028,-3.314284 1.577549,-1.596359 -1.396252,-2.243318 c -0.0558,-0.08968 0.100611,-0.05912 -0.05336,0.05243 -0.280006,0.202828 -2.353039,0.742913 -2.504936,1.168761 -0.150301,0.421337 -0.635716,2.015818 -0.842111,2.564214 -0.594743,1.580376 -0.171303,2.175544 -0.235084,2.319779 -0.04192,0.09475 1.147288,-0.10376 1.147288,-0.09648 0,0.01327 2.306909,-2.169027 2.306909,-2.169027 z m -16.257805,1.599314 1.077715,-0.764148 -0.90238,-2.344957 -1.142742,-1.045405 -1.069649,0.391116 -0.649358,1.07618 -0.04206,1.796317 0.114496,1.326066 1.070783,0.909911 1.543243,-1.345083 z m 7.16321,-5.032919 c 0.174483,-0.239091 0.498022,-0.690226 0.719008,-1.002513 0.22103,-0.312287 0.539043,-0.751689 0.706798,-0.976454 0.167711,-0.22476 0.456673,-0.62112 0.642054,-0.880797 0.185426,-0.259678 0.449574,-0.626723 0.586946,-0.815655 0.793077,-1.090452 1.08099,-1.5010623 1.08099,-1.5416213 0,-0.025026 -0.133024,-0.1778256 -0.295624,-0.3395543 -0.268538,-0.2671267 -0.300102,-0.2885749 -0.345186,-0.2342563 -0.02728,0.032886 -0.305497,0.4328338 -0.618223,0.8887659 -0.776915,1.132724 -2.610245,3.783227 -3.060168,4.424223 -0.202573,0.288557 -0.374827,0.544069 -0.382865,0.567794 -0.01158,0.03477 0.530502,0.331058 0.626153,0.342135 0.01223,0.0017 0.165635,-0.192971 0.340117,-0.432067 z m -4.4975,-0.722656 c 0.125167,-0.16515 -0.364433,-1.278539 -0.345888,-1.302693 0.02453,-0.03205 0.555539,-1.720317 0.555539,-1.720317 l -3.651365,1.22814 -0.585845,0.50795 -0.0094,0.925818 c 0,0 1.1e-4,0.935405 0.01184,0.947121 0.01158,0.01171 0.902343,0.411554 0.902343,0.411554 l 0.807541,0.511673 c 0,0 1.171412,-0.655492 1.197755,-0.686036 z m 14.57121,-1.1978 -1.084573,-1.084009 c 0,0 -1.447888,1.623847 -1.728265,2.115941 -0.280444,0.492085 -0.519473,0.91973 -0.531202,0.950318 -0.02031,0.05286 3.34404,-1.98225 3.34404,-1.98225 z m -11.099983,0.997666 c 0.298813,-0.434206 0.797118,-1.156762 1.107333,-1.605675 0.310216,-0.448911 0.704504,-1.021845 0.876235,-1.273188 0.17162,-0.251335 0.531091,-0.76963 0.798668,-1.151764 0.267621,-0.3821342 0.482055,-0.6993007 0.476507,-0.7048173 -0.0055,-0.00547 -0.208448,0.046356 -0.451015,0.115277 -0.329263,0.093531 -0.589458,0.1015733 -0.589458,0.1015733 l -2.485476,0.670618 -2.077361,0.405147 c 0,0 -0.795285,1.996329 -0.839233,2.1475 -0.07988,0.274858 -0.07988,0.274858 0.240558,0.709741 0.176273,0.239192 0.357177,0.476402 0.402065,0.527139 0.05209,0.05897 0.267271,0.16718 0.596162,0.299856 0.282977,0.11417 0.690218,0.283808 0.904915,0.376956 0.214673,0.09314 0.414296,0.169755 0.443588,0.170233 0.02995,1.73e-4 0.291036,-0.344667 0.596512,-0.788596 z m 7.469363,0.1953 c 0.165372,-0.259553 1.267246,-2.10171 1.267246,-2.118684 0,-0.01067 -0.255477,-0.01944 -0.567745,-0.01944 -0.46506,0 -0.56781,0.0091 -0.56781,0.05005 0,0.08766 -0.212554,1.986379 -0.233742,2.08805 -0.01119,0.05367 -0.0068,0.09759 0.0096,0.09759 0.01661,0 0.05808,-0.04392 0.09228,-0.09759 z m -2.778262,-1.775386 c 0.458638,-0.214933 1.077211,-0.508235 1.374539,-0.651779 l 0.540659,-0.26099 -0.519013,-0.525627 c -0.518946,-0.52563 -0.518946,-0.52563 -0.644762,-0.423794 -0.06918,0.05601 -0.156964,0.143552 -0.195059,0.194534 -0.06889,0.09227 -0.06884,0.09314 0.0064,0.189037 0.152071,0.193315 0.110618,0.27382 -0.339506,0.65976 -0.528231,0.452863 -1.550594,1.381392 -1.583621,1.438278 -0.01616,0.02781 0.09561,-0.01223 0.248399,-0.08903 0.152771,-0.07678 0.653063,-0.315451 1.111724,-0.530387 z"
           id="path331"
           sodipodi:nodetypes="cccccscsscccccccccsssscccccccccccccccccccccccccccccccccccccccccccccccccccccccccccccccccccccccccccccccccccccccccccccccccccccccccccccccccccccccccccccccccccccccccccccccccccccccccccccccccccccccccccccccccccccccccccccsccccccccccccccccccccccccccccccccccccccccccccccccsscccccccccccccccccccccccccccscccccccccccccccccccccccccccccc" />
        <g
           id="g354"
           style="display:inline"
           inkscape:label="simple-v-ground-bang">
          <path
             style="display:inline;fill:#000000;fill-opacity:1;fill-rule:evenodd;stroke:none;stroke-width:1.43642;stroke-linecap:round;stroke-opacity:1"
             d="m 60.33631,28.27819 11.203194,0.930897 -14.3345,0.999305 9.880549,2.930977 -10.676699,-0.387376 2.731238,1.730459 -6.922431,-1.402762 6.473885,-4.945862 z"
             id="path353"
             sodipodi:nodetypes="ccccccccc" />
          <path
             style="display:inline;fill:#000000;fill-opacity:1;fill-rule:evenodd;stroke:none;stroke-width:1.43642;stroke-linecap:round;stroke-opacity:1"
             d="m 43.33449,28.207377 -9.344462,-1.411851 8.493884,3.066894 -10.415949,3.067097 12.501207,-1.281001 -3.322002,2.897098 4.826458,-2.0465 3.055117,2.345233 -0.0078,-2.960749"
             id="path354" />
        </g>
        <g
           id="g411"
           style="display:inline"
           inkscape:label="simple-v-ground-bang">
          <path
             style="display:inline;fill:#000000;fill-opacity:1;fill-rule:evenodd;stroke:none;stroke-width:1.43642;stroke-linecap:round;stroke-opacity:1"
             d="m 60.33631,28.27819 11.203194,0.930897 -14.3345,0.999305 9.880549,2.930977 -10.676699,-0.387376 2.731238,1.730459 -6.922431,-1.402762 6.473885,-4.945862 z"
             id="path410"
             sodipodi:nodetypes="ccccccccc" />
          <path
             style="display:inline;fill:#000000;fill-opacity:1;fill-rule:evenodd;stroke:none;stroke-width:1.43642;stroke-linecap:round;stroke-opacity:1"
             d="m 43.33449,28.207377 -9.344462,-1.411851 8.493884,3.066894 -10.415949,3.067097 12.501207,-1.281001 -3.322002,2.897098 4.826458,-2.0465 3.055117,2.345233 -0.0078,-2.960749"
             id="path411" />
        </g>
      </g>
    </g>
    <g
       id="g2"
       transform="matrix(1.6730483,0,0,1.6730483,7.599225,23.255708)">
      <g
         id="g62"
         transform="matrix(0.39895272,0,0,0.39895272,-166.26008,-55.384491)">
        <g
           fill="#000000"
           fill-opacity="1"
           id="g27"
           transform="matrix(0.51810283,0,0,0.51810283,367.90779,207.60131)"
           style="display:inline"
           inkscape:label="E">
          <g
             transform="translate(370.4583,109.61812)"
             id="g26">
            <g
               id="g25">
              <path
                 d="m 3.4900361,152.62836 c 11.0643559,0 20.3537709,-5.57365 23.5718899,-13.50283 L 20.6091,136.488 c -2.73706,5.37459 -9.289415,9.38895 -17.0195345,9.38895 -10.6662385,0 -18.5788295,-7.13294 -19.6570655,-17.41765 h 41.570131 c 0.09953,-0.97872 0.09953,-2.04036 0.09953,-2.93613 -0.199058,-15.24459 -9.687532,-26.209417 -24.169066,-26.209417 -14.664005,0 -25.230714,10.964827 -25.230714,26.126487 0,15.74223 11.545416,27.18812 27.2876561,27.18812 z M -15.96797,121.90694 c 1.360235,-9.38895 8.11165,-15.74224 17.301535,-15.74224 9.007414,0 15.36071,5.67318 16.339416,15.74224 z m 0,0"
                 id="path25"
                 style="stroke-width:1.06165" />
            </g>
          </g>
        </g>
        <g
           fill="#000000"
           fill-opacity="1"
           id="g36"
           transform="matrix(0.51810283,0,0,0.51810283,356.16264,286.73738)">
          <g
             transform="translate(423.34475,109.61812)"
             id="g33">
            <g
               id="g32">
              <path
                 d="m 4.609375,0 h 7 v -16.125 l 6.734375,-7 L 33.8125,0 h 8.484375 L 23.125,-28.1875 40.71875,-46.53125 h -9.296875 l -19.71875,21.015625 h -0.09375 V -67.71875 h -7 z m 0,0"
                 id="path27" />
            </g>
          </g>
        </g>
        <g
           fill="#000000"
           fill-opacity="1"
           id="g52"
           transform="matrix(0.51810283,0,0,0.51810283,284.68755,285.78213)">
          <g
             transform="translate(465.63549,109.61812)"
             id="g40">
            <g
               id="g38">
              <path
                 d="m 24.875,1.84375 c 7.921875,0 15.015625,-4.96875 16.3125,-13.078125 l -5.71875,-2.40625 c -0.921875,6 -5.25,9.40625 -9.953125,9.40625 -5.0625,0 -8.28125,-3.78125 -8.28125,-9.03125 V -40.71875 h 20.8125 v -5.8125 h -20.8125 v -15.484375 l -7,1.65625 V -46.53125 H 0 v 5.8125 h 10.234375 v 28.1875 c 0,8.484375 5.890625,14.375 14.640625,14.375 z m 0,0"
                 id="path36" />
            </g>
          </g>
        </g>
        <g
           fill="#000000"
           fill-opacity="1"
           id="g55"
           transform="matrix(0.51810283,0,0,0.51810283,356.16264,286.73738)"
           style="display:inline">
          <g
             transform="translate(507.18912,109.61812)"
             id="g54">
            <g
               id="g53">
              <path
                 d="m 8.84375,-55.5625 c 3.046875,0 5.25,-2.03125 5.25,-5.15625 0,-3.046875 -2.203125,-5.0625 -5.25,-5.0625 -3.125,0 -5.15625,2.015625 -5.15625,5.0625 0,3.125 2.03125,5.15625 5.15625,5.15625 z M 5.25,0 h 7 v -46.53125 h -7 z m 0,0"
                 id="path52" />
            </g>
          </g>
        </g>
        <g
           fill="#000000"
           fill-opacity="1"
           id="g58"
           transform="matrix(0.51810283,0,0,0.51810283,356.16264,286.73738)"
           style="display:inline">
          <g
             transform="translate(524.97149,109.61812)"
             id="g57">
            <g
               id="g56">
              <path
                 d="m 24.875,1.84375 c 7.921875,0 15.009669,-1.34938536 16.306544,-9.4587604 l -5.71875,-2.4062496 c -0.921875,5.9999996 -5.244044,5.786885 -9.947169,5.786885 -5.0625,0 -8.28125,-3.78125 -8.28125,-9.03125 V -40.71875 h 20.8125 v -5.8125 h -20.8125 v -15.484375 l -7,1.65625 V -46.53125 H 0 v 5.8125 h 10.234375 v 28.1875 c 0,8.484375 5.890625,14.375 14.640625,14.375 z"
                 id="path55"
                 sodipodi:nodetypes="sccssccccccccccss" />
              <path
                 d="m -37.4951,1.84375 c 7.921875,0 15.009669,-1.34938497 16.306544,-9.45876 l -5.71875,-2.40625 c -0.921875,6 -5.244044,5.786885 -9.947169,5.786885 -5.0625,0 -8.28125,-3.78125 -8.28125,-9.03125 V -40.71875 h 20.8125 v -5.8125 h -20.8125 v -15.484375 l -6.999999,1.65625 v 13.828125 h -10.234375 v 5.8125 h 10.234375 v 28.1875 c 0,8.484375 5.890624,14.375 14.640624,14.375 z"
                 id="path56"
                 sodipodi:nodetypes="sccssccccccccccss"
                 style="display:inline" />
            </g>
          </g>
        </g>
        <g
           fill="#000000"
           fill-opacity="1"
           id="g61"
           transform="matrix(0.51810283,0,0,0.51810283,356.16264,286.73738)">
          <g
             transform="translate(566.52512,109.61812)"
             id="g60"
             style="display:inline">
            <g
               id="g59">
              <path
                 d="m 30.099985,1.84375 c 11.064357,0 20.353771,-3.3458029 23.57189,-11.2749819 l -6.452826,-2.6375301 c -2.737059,5.3745898 -9.289414,7.1610981 -17.019534,7.1610981 -10.666239,0 -18.57883,-7.1329431 -19.657065,-17.4176521 h 41.57013 c 0.09953,-0.978707 0.09953,-2.040354 0.09953,-2.936119 -0.199059,-15.244593 -9.687533,-26.20942 -24.169067,-26.20942 -14.664004,0 -25.2307135,10.964827 -25.2307135,26.126479 0,15.74224 11.5454155,27.188126 27.2876555,27.188126 z M 10.641979,-28.877671 c 1.360236,-9.388945 8.11165,-15.742241 17.301535,-15.742241 9.007415,0 15.360711,5.673179 16.339417,15.742241 z"
                 id="path58"
                 sodipodi:nodetypes="sccscccssscscc"
                 style="stroke-width:1.06165" />
            </g>
          </g>
        </g>
      </g>
      <g
         id="g1"
         transform="translate(-9.1454396,5.0856854)">
        <path
           style="fill:#000000;fill-opacity:1;fill-rule:evenodd;stroke:#000000;stroke-width:0.664185;stroke-linecap:round;stroke-dasharray:none;stroke-opacity:1"
           d="m 37.947225,59.927627 2.403768,2.423224 1.897262,0.05157 1.427526,1.618926 0.05331,1.733893 0.720282,0.984192 0.03935,5.099694 -1.340879,1.716373 -0.01063,0.711112 -7.407134,4.442845 -8.090747,-4.735187 -1.509687,-2.890352 0.724652,-1.271104 0.05247,-3.415886 0.982534,-0.94117 V 63.22834 l 3.842789,-1.450898 0.196538,-0.197163 z"
           id="path412"
           sodipodi:nodetypes="ccccccccccccccccccc" />
        <path
           style="fill:#84e584;fill-opacity:1;stroke:none;stroke-width:0.0256161;stroke-dasharray:none;stroke-opacity:1"
           d="M 35.361748,77.695796 C 35.179969,77.589675 34.720003,77.32225 34.339557,77.101515 33.513714,76.622329 33.00116,76.320881 32.008314,75.730451 31.105916,75.193796 30.544795,74.866361 29.702679,74.385006 28.072187,73.453003 28.27046,73.588874 28.116481,73.297975 27.933646,72.95261 27.586708,72.27744 27.206262,71.526624 c -0.312595,-0.616878 -0.312595,-0.616878 -0.237773,-0.742929 0.156013,-0.262853 0.578166,-0.948671 0.624053,-1.01383 0.04548,-0.06457 0.04788,-0.144925 0.04788,-1.592632 v -1.52463 l 0.448301,-0.429445 0.448329,-0.429447 v -1.016344 -1.016342 l 0.505947,-0.185803 c 0.278283,-0.102188 1.053571,-0.368168 1.722818,-0.591066 1.216868,-0.405269 1.216868,-0.405269 1.278081,-0.547187 0.05564,-0.1289 0.0721,-0.145406 0.179351,-0.179928 0.169416,-0.05452 1.840039,-0.522776 2.474972,-0.693704 0.295895,-0.07966 0.820418,-0.225209 1.165638,-0.323453 1.410678,-0.401477 1.821321,-0.510361 1.851896,-0.49101 0.01752,0.01109 0.514841,0.512987 1.105245,1.11533 0.590356,0.602351 1.08014,1.095573 1.088371,1.096051 0.0082,4.73e-4 0.401165,0.01128 0.873195,0.02397 l 0.858199,0.02309 0.230567,0.243221 c 0.126811,0.133769 0.416178,0.43887 0.643038,0.678 0.387936,0.408915 0.413466,0.442002 0.429124,0.556175 0.0088,0.06677 0.01664,0.452023 0.01664,0.856119 0,0.83541 -0.04641,0.690919 0.401134,1.248715 0.114938,0.143255 0.244601,0.31229 0.288186,0.37563 0.07926,0.115169 0.07926,0.115169 0.07926,2.352845 0,2.059031 -0.0033,2.242738 -0.04335,2.301022 -0.02379,0.03484 -0.268773,0.344395 -0.544374,0.687903 -0.819472,1.021406 -0.727148,0.86211 -0.706743,1.219422 l 0.01771,0.307941 -1.247932,0.742929 c -1.595234,0.949698 -4.011216,2.398825 -4.85587,2.912609 l -0.655796,0.398903 z m 0.137281,-1.029822 c -0.01246,-0.348405 -0.01936,-0.393425 -0.07731,-0.49315 -0.255166,-0.439362 -1.179388,-2.267628 -1.441176,-2.850888 -0.518877,-1.155991 -0.895223,-1.978923 -1.089618,-2.382487 -0.117396,-0.24375 -0.136854,-0.268202 -0.400519,-0.503783 L 32.21326,70.188068 32.1968,70.358812 c -0.0091,0.09391 -0.02478,0.395543 -0.03489,0.670299 l -0.0184,0.499552 0.941331,1.562711 c 0.517742,0.859493 1.093954,1.816331 1.280479,2.126309 0.35815,0.595237 0.64788,1.064948 0.914477,1.482496 0.08878,0.13905 0.171813,0.274505 0.184538,0.301011 0.01278,0.0265 0.0288,0.04819 0.03573,0.04819 0.0069,0 0.0065,-0.172533 -0.0017,-0.383409 z m 1.47842,-0.564465 c 0.462679,-0.572693 0.915108,-1.247743 1.485232,-2.215974 0.165901,-0.281797 0.340789,-0.575765 0.38863,-0.653263 0.08693,-0.140898 0.08693,-0.140898 -0.160617,-0.377865 -0.136145,-0.130333 -0.658151,-0.587497 -0.666446,-0.586824 -0.0082,7.94e-4 -0.41262,0.185239 -0.602835,0.574359 -0.190215,0.389123 -0.312105,0.947925 -0.446373,1.291348 -0.232683,0.891634 -0.70129,2.679346 -0.70129,2.699399 0,0.0438 0.483303,-0.458382 0.703699,-0.73118 z m -2.332457,0.441914 c -0.02547,-0.03875 -0.120534,-0.191495 -0.21125,-0.339439 -0.09073,-0.147946 -0.271769,-0.441913 -0.402301,-0.653265 -0.130547,-0.21135 -0.490179,-0.799288 -0.799178,-1.306528 -0.309015,-0.50724 -0.693529,-1.137945 -0.854462,-1.401573 -0.160933,-0.263627 -0.305341,-0.479781 -0.320842,-0.480342 -0.01561,-7.94e-4 -0.08623,0.06238 -0.157243,0.139879 -0.137563,0.150198 -0.188921,0.167207 -0.312263,0.10342 -0.07979,-0.04126 -0.104292,-0.08562 -0.104292,-0.188737 0,-0.05146 0.04411,-0.109734 0.178814,-0.236143 l 0.178783,-0.167823 -0.156785,-0.258792 c -0.151283,-0.249771 -0.163536,-0.262595 -0.351701,-0.367754 -0.210336,-0.117554 -1.217578,-0.701158 -1.420439,-0.823013 -0.06815,-0.04093 -0.115316,-0.05951 -0.104829,-0.04128 0.102984,0.178909 0.938066,1.341238 2.275974,3.167974 0.181968,0.248443 0.44221,0.607345 0.578324,0.797557 0.715968,1.000574 1.143672,1.573753 1.24623,1.670081 0.06942,0.06523 0.714359,0.449826 0.761602,0.454187 0.01214,0.0012 0.0017,-0.02966 -0.02415,-0.06842 z m 1.473564,-0.527776 c 0.386328,-1.196052 0.699064,-3.059206 0.974571,-5.806317 0.137959,-1.375811 0.18293,-1.728502 0.226482,-1.777 0.07015,-0.07812 0.150762,-0.09692 0.24561,-0.05729 0.139661,0.05836 0.144598,0.109326 0.07726,0.798433 -0.03295,0.337236 -0.101327,1.043413 -0.151959,1.569282 -0.0506,0.525871 -0.106533,1.07634 -0.124209,1.223266 -0.01771,0.146928 -0.02582,0.266468 -0.01799,0.265647 0.0079,-7.94e-4 0.09739,-0.109897 0.199045,-0.242386 0.182804,-0.238155 1.161948,-1.280889 1.199777,-1.516137 0.02101,-0.130875 0.09972,-1.819602 0.09972,-1.819602 l 0.45468,-2.120951 0.284826,-2.88748 c 0,0 -1.243629,0.629761 -1.477428,0.737899 L 36.1643,65.476173 c -0.106974,0.158615 -0.252406,0.370124 -0.323254,0.470022 -0.128796,0.181623 -0.128796,0.181623 -0.102462,2.163769 0.0145,1.09018 0.03504,1.997698 0.04567,2.016714 0.01072,0.01901 0.03835,-0.205351 0.06159,-0.49859 0.04093,-0.517042 0.04421,-0.5349 0.108408,-0.5908 0.03638,-0.0317 0.09491,-0.05764 0.130042,-0.05764 0.09892,0 0.212544,0.07069 0.230851,0.143622 0.01831,0.07298 0.01788,0.0819 -0.105397,2.072348 -0.129017,2.083886 -0.160112,2.734312 -0.205179,4.291047 -0.0079,0.274757 -0.02023,0.591625 -0.0273,0.704157 -0.0081,0.127012 -0.004,0.195018 0.0112,0.179327 0.01309,-0.0139 0.07176,-0.173432 0.130248,-0.354508 z m -3.731673,-1.148339 c -0.294633,-0.413164 -0.753149,-1.045173 -1.018942,-1.404471 -0.265794,-0.359294 -0.85388,-1.165628 -0.85388,-1.165628 l -1.172275,-1.52211 -0.848422,0.571999 -0.639822,0.445881 0.92594,1.454731 1.131735,0.74985 1.232054,0.702433 0.534788,0.246925 c 0,0 1.221174,0.69261 1.235681,0.679529 0.0049,-0.0043 -0.232239,-0.345973 -0.526857,-0.759139 z m 9.390774,-1.128359 c 0,0 -0.653809,-0.32777 -1.481858,-0.624671 -0.04725,-0.01695 -0.239508,0.03978 -0.42269,0.06776 -0.183182,0.02799 -0.365403,0.05755 -0.404919,0.06571 -0.0823,0.01698 -0.284226,0.312652 -0.785443,1.150139 -0.160224,0.26771 -0.323948,0.534937 -0.363842,0.593837 -0.111451,0.16449 -0.919334,1.555955 -0.919334,1.555955 0.231655,-0.12977 0.719689,-0.506995 0.719689,-0.506995 z m -6.372656,0.665357 c 0.07121,-0.338157 0.07323,-0.643514 0.0112,-1.658777 -0.05967,-0.974903 -0.140323,-2.701049 -0.191555,-4.098909 -0.04739,-1.293138 -0.0293,-1.176192 -0.225773,-1.459373 -0.32994,-0.475555 -0.428351,-0.590493 -0.40104,-0.468395 0.0056,0.02466 0.02107,0.188932 0.03456,0.365058 0.0134,0.176126 0.04928,0.601528 0.07955,0.94534 0.06099,0.691929 0.05813,0.718176 -0.08592,0.786866 -0.07919,0.03777 -0.09253,0.03765 -0.168076,-0.0014 -0.04513,-0.02335 -0.09148,-0.06782 -0.102921,-0.09886 -0.01167,-0.03103 -0.03503,-0.223571 -0.0523,-0.427877 -0.01736,-0.204304 -0.04746,-0.532856 -0.06701,-0.730118 -0.01954,-0.197259 -0.04784,-0.554632 -0.06289,-0.794165 -0.01497,-0.239527 -0.03247,-0.459782 -0.03869,-0.489452 -0.0079,-0.03672 -0.107384,-0.08912 -0.167462,-0.124 -0.249662,-0.145021 -0.524443,-0.242369 -0.79265,-0.349285 -0.05741,-0.02288 -0.170125,-0.06691 -0.174572,-0.06246 -0.01719,0.01723 0.129538,1.392772 0.355358,3.330835 0.12126,1.040678 0.302203,1.997879 0.508518,2.689906 0.232301,0.779275 0.840743,2.441949 0.845978,2.311764 0.0043,-0.109709 -0.274923,-2.776984 -0.320983,-3.064955 -0.02048,-0.128073 0.06137,-0.233108 0.181669,-0.233108 0.18088,0 0.227508,0.06562 0.254724,0.358656 0.0099,0.105675 0.05102,0.463047 0.09155,0.794164 0.04053,0.331114 0.09838,0.803768 0.128498,1.050343 0.03017,0.246576 0.0886,0.644296 0.129853,0.883829 0.04124,0.239528 0.08876,0.524853 0.105587,0.634049 0.01683,0.109197 0.03812,0.198539 0.04739,0.198539 0.0093,0 0.04411,-0.129691 0.0775,-0.288203 z m 6.847476,-1.951274 c 0.14261,-0.153828 0.275239,-0.30202 0.294682,-0.329318 0.03342,-0.04686 0.03198,-0.04782 -0.02564,-0.01715 -0.121655,0.0648 -0.49092,0.309934 -0.719248,0.477528 -0.233626,0.171491 -0.233626,0.171491 -0.120692,0.269512 0.112902,0.09802 0.112902,0.09802 0.212228,-0.01143 0.05461,-0.0602 0.215996,-0.235307 0.35867,-0.389136 z M 40.310242,72.6155 c 0.168203,-0.01621 0.310214,-0.03356 0.315638,-0.03856 0.0079,-0.0074 -1.207298,-1.637584 -1.207298,-1.637584 l -0.854304,0.992113 c 0,0 0.320888,0.337333 0.52107,0.540772 0.198525,0.201787 0.198525,0.201787 0.558818,0.187258 0.198131,-0.008 0.49789,-0.02779 0.666076,-0.04401 z m 2.172376,-1.309756 c 0.07241,-0.0592 0.133748,-0.108374 0.136302,-0.109268 0.0025,-7.94e-4 -0.02342,-0.191667 -0.05771,-0.423938 -0.0343,-0.23227 -0.06971,-0.533082 -0.07874,-0.668471 -0.01513,-0.229085 -0.01246,-0.249972 0.03853,-0.301015 0.037,-0.037 0.08611,-0.05458 0.150904,-0.05403 0.105585,9.38e-4 0.161438,0.03329 0.207939,0.120581 0.02871,0.05393 0.08014,0.47681 0.12025,0.989169 0.01773,0.226735 0.01773,0.226735 0.08498,0.159469 0.06719,-0.06727 0.06719,-0.06727 0.05885,-1.597126 -0.0044,-0.841422 -0.01041,-1.531208 -0.01278,-1.532858 -0.0024,-0.0016 -0.144834,0.153898 -0.316378,0.345658 -0.171545,0.191767 -0.510237,0.561937 -0.752677,0.822602 -0.565205,0.607701 -0.629998,0.694272 -0.789023,1.054121 -0.0725,0.16411 -0.131825,0.30393 -0.131825,0.310707 0,0.0068 0.141191,0.133376 0.313824,0.281333 0.172603,0.147955 0.429093,0.368295 0.57,0.489641 0.140906,0.121349 0.27188,0.220733 0.291039,0.220852 0.0192,1.13e-4 0.09414,-0.04822 0.166546,-0.107421 z m -0.499971,0.565144 -1.6289,-1.616006 -0.613488,0.373918 1.291406,1.795386 z m -13.53476,-0.856542 c 0.04681,-0.02221 0.150699,-0.109156 0.230882,-0.193219 l 0.145795,-0.152846 -0.291054,-0.231234 c -0.316284,-0.251262 -0.42988,-0.322683 -0.454574,-0.285764 -0.195813,0.292768 -0.468465,0.728334 -0.460739,0.736067 0.02023,0.02023 0.600243,0.16276 0.671627,0.165042 0.04012,0.0012 0.111246,-0.01583 0.158063,-0.03805 z m 3.10713,-0.516816 c -0.269971,-0.647924 -0.402631,-0.916027 -0.449101,-0.907372 -0.02498,0.0047 -0.229921,0.06413 -0.455363,0.132168 -0.225425,0.06802 -0.453627,0.131875 -0.507066,0.141883 -0.05457,0.01022 -0.09306,0.0309 -0.0878,0.04716 0.0052,0.01594 0.07774,0.07051 0.161248,0.121274 0.228675,0.139042 1.359085,0.714662 1.403426,0.714662 0.03009,0 0.01562,-0.05573 -0.06534,-0.249778 z m 1.70909,0.04227 -0.529413,-3.849206 -0.03472,-0.892364 c 0,0 -0.845876,8.66e-4 -0.985191,0.0831 -0.13933,0.08222 -0.96505,0.892191 -1.031704,0.93016 -0.121165,0.06904 -0.121165,0.06904 -0.06103,0.228375 0.05427,0.143686 0.270209,0.653264 0.738405,1.742605 0.162984,0.379216 0.162984,0.379216 0.379816,0.549924 0.351701,0.276917 0.649035,0.57775 0.649035,0.57775 z m 8.56896,-2.392578 1.138831,-1.152409 -1.007953,-1.619449 c -0.04028,-0.06474 0.07263,-0.04268 -0.03852,0.03785 -0.202136,0.146421 -1.698657,0.536308 -1.808311,0.843727 -0.108502,0.304163 -0.458923,1.455217 -0.607919,1.851104 -0.429344,1.140871 -0.123663,1.570522 -0.169707,1.674646 -0.03026,0.0684 0.828226,-0.07491 0.828226,-0.06965 0,0.0096 1.665355,-1.565819 1.665355,-1.565819 z m -11.736492,1.154544 0.778002,-0.551638 -0.651427,-1.692822 -0.824945,-0.754677 -0.772178,0.282347 -0.468771,0.776893 -0.03036,1.296759 0.08266,0.957286 0.772997,0.656863 1.114065,-0.971014 z m 5.171114,-3.633259 c 0.125959,-0.1726 0.359521,-0.498274 0.519051,-0.723713 0.159561,-0.22544 0.389135,-0.542644 0.510237,-0.704901 0.12107,-0.162254 0.329671,-0.448386 0.463498,-0.635847 0.133859,-0.187461 0.324547,-0.45243 0.423715,-0.58882 0.572522,-0.787196 0.780366,-1.083615 0.780366,-1.112895 0,-0.01807 -0.09603,-0.128372 -0.213411,-0.245124 -0.193857,-0.192838 -0.216643,-0.208322 -0.249189,-0.169109 -0.01969,0.02374 -0.220538,0.312462 -0.446295,0.641599 -0.560854,0.817712 -1.884333,2.731107 -2.209132,3.193842 -0.146237,0.208309 -0.270587,0.392763 -0.276389,0.40989 -0.0084,0.0251 0.382968,0.23899 0.452019,0.246987 0.0088,0.0012 0.119572,-0.139306 0.24553,-0.311909 z m -3.24674,-0.521685 c 0.09036,-0.119221 -0.263084,-0.922976 -0.249697,-0.940412 0.01771,-0.02314 0.401043,-1.241895 0.401043,-1.241895 l -2.635916,0.886593 -0.422921,0.366688 -0.0068,0.668347 c 0,0 8e-5,0.675268 0.0085,0.683726 0.0084,0.0085 0.6514,0.2971 0.6514,0.2971 l 0.582963,0.369376 c 0,0 0.845641,-0.473199 0.864658,-0.495248 z m 10.51894,-0.86469 -0.782952,-0.782545 c 0,0 -1.045229,1.172253 -1.247633,1.527495 -0.202452,0.355236 -0.375007,0.663952 -0.383474,0.686034 -0.01466,0.03816 2.414059,-1.430984 2.414059,-1.430984 z m -8.013065,0.720214 c 0.215712,-0.313453 0.575438,-0.835065 0.799382,-1.159135 0.223945,-0.324069 0.508581,-0.737669 0.632553,-0.919113 0.123892,-0.181439 0.383394,-0.555595 0.576558,-0.831457 0.193195,-0.275863 0.347995,-0.504825 0.34399,-0.508807 -0.004,-0.0039 -0.150479,0.03346 -0.325588,0.08322 -0.237694,0.06752 -0.425529,0.07333 -0.425529,0.07333 l -1.794262,0.484118 -1.499645,0.292475 c 0,0 -0.574115,1.441148 -0.605841,1.550278 -0.05767,0.19842 -0.05767,0.19842 0.173658,0.512361 0.127252,0.172673 0.257846,0.343914 0.290251,0.380541 0.0376,0.04257 0.192942,0.120688 0.430368,0.216466 0.204281,0.08242 0.498268,0.204881 0.653257,0.272124 0.154973,0.06724 0.29908,0.122546 0.320226,0.122891 0.02162,1.25e-4 0.210099,-0.248814 0.430622,-0.569286 z m 5.392124,0.140987 c 0.119382,-0.187371 0.914824,-1.517223 0.914824,-1.529476 0,-0.0077 -0.184429,-0.01403 -0.409855,-0.01403 -0.335726,0 -0.409901,0.0066 -0.409901,0.03613 0,0.06328 -0.153442,1.433965 -0.168738,1.507361 -0.0081,0.03875 -0.0049,0.07045 0.0069,0.07045 0.01199,0 0.04193,-0.03171 0.06662,-0.07045 z m -2.005624,-1.28165 c 0.33109,-0.15516 0.777638,-0.366894 0.992278,-0.470518 l 0.390302,-0.188409 -0.374675,-0.379449 c -0.374627,-0.379452 -0.374627,-0.379452 -0.465453,-0.305937 -0.04994,0.04043 -0.113313,0.103631 -0.140813,0.140434 -0.04973,0.06661 -0.0497,0.06724 0.0046,0.136466 0.10978,0.139554 0.07986,0.19767 -0.245089,0.47628 -0.381329,0.326921 -1.119372,0.997225 -1.143214,1.038291 -0.01167,0.02008 0.06902,-0.0088 0.179319,-0.06427 0.110285,-0.05543 0.471445,-0.227724 0.802552,-0.382886 z"
           id="path413"
           sodipodi:nodetypes="cccccscsscccccccccsssscccccccccccccccccccccccccccccccccccccccccccccccccccccccccccccccccccccccccccccccccccccccccccccccccccccccccccccccccccccccccccccccccccccccccccccccccccccccccccccccccccccccccccccccccccccccccccccsccccccccccccccccccccccccccccccccccccccccccccccccsscccccccccccccccccccccccccccscccccccccccccccccccccccccccccc" />
        <g
           id="g415"
           style="display:inline"
           inkscape:label="simple-v-ground-bang"
           transform="matrix(0.7218989,0,0,0.7218989,-1.5950685,54.838391)">
          <path
             style="display:inline;fill:#000000;fill-opacity:1;fill-rule:evenodd;stroke:none;stroke-width:1.43642;stroke-linecap:round;stroke-opacity:1"
             d="m 60.33631,28.27819 11.203194,0.930897 -14.3345,0.999305 9.880549,2.930977 -10.676699,-0.387376 2.731238,1.730459 -6.922431,-1.402762 6.473885,-4.945862 z"
             id="path414"
             sodipodi:nodetypes="ccccccccc" />
          <path
             style="display:inline;fill:#000000;fill-opacity:1;fill-rule:evenodd;stroke:none;stroke-width:1.43642;stroke-linecap:round;stroke-opacity:1"
             d="m 43.33449,28.207377 -9.344462,-1.411851 8.493884,3.066894 -10.415949,3.067097 12.501207,-1.281001 -3.322002,2.897098 4.826458,-2.0465 3.055117,2.345233 -0.0078,-2.960749"
             id="path415" />
        </g>
      </g>
    </g>
    <g
       id="g10"
       transform="matrix(1.8898608,0,0,1.8898608,7.0981533,199.95054)">
      <path
         style="fill:#000000;fill-opacity:1;fill-rule:evenodd;stroke:#000000;stroke-width:0.920053;stroke-linecap:round;stroke-dasharray:none;stroke-opacity:1"
         d="m 54.775389,7.0497904 3.329785,3.3567366 2.628155,0.07143 1.97746,2.242594 0.07384,2.40185 0.99776,1.363338 0.05451,7.064278 -1.857433,2.37758 -0.01472,0.985058 -10.260626,6.154387 -11.20759,-6.559349 -2.091272,-4.003819 1.003813,-1.760778 0.07269,-4.731807 1.361041,-1.303742 V 11.622055 L 46.16597,9.6122206 46.438221,9.3391022 Z"
         id="path4"
         sodipodi:nodetypes="ccccccccccccccccccc" />
      <path
         style="fill:#84e584;fill-opacity:1;stroke:none;stroke-width:0.0354843;stroke-dasharray:none;stroke-opacity:1"
         d="M 51.193895,31.662889 C 50.942088,31.515887 50.304927,31.14544 49.77792,30.83967 48.633933,30.175885 47.923925,29.758308 46.548599,28.940423 45.298565,28.19703 44.52128,27.743455 43.354752,27.076665 c -2.258616,-1.291043 -1.983961,-1.10283 -2.197258,-1.505793 -0.25327,-0.478412 -0.733861,-1.413682 -1.260868,-2.453739 -0.433017,-0.854521 -0.433017,-0.854521 -0.329372,-1.029131 0.216115,-0.364114 0.800897,-1.314133 0.864461,-1.404394 0.063,-0.08944 0.06633,-0.200755 0.06633,-2.20617 v -2.111972 l 0.621003,-0.594883 0.621041,-0.594885 V 13.767823 12.35995 l 0.700856,-0.257381 c 0.385487,-0.141555 1.459444,-0.51 2.386508,-0.818766 1.68565,-0.561393 1.68565,-0.561393 1.770444,-0.757983 0.07707,-0.178556 0.09987,-0.201421 0.248443,-0.249242 0.234682,-0.07553 2.548888,-0.7241679 3.428419,-0.9609437 0.409885,-0.1103447 1.136472,-0.3119674 1.614683,-0.4480588 1.954122,-0.5561403 2.522959,-0.7069698 2.565313,-0.6801639 0.02427,0.015356 0.713176,0.7106073 1.531024,1.5449947 0.817782,0.8343977 1.496248,1.5176267 1.50765,1.5182877 0.01132,6.56e-4 0.555709,0.01562 1.209581,0.0332 l 1.188808,0.03199 0.319389,0.336918 c 0.175663,0.185301 0.576505,0.607938 0.89076,0.93919 0.537383,0.566443 0.572747,0.612277 0.594437,0.770433 0.01223,0.09249 0.02305,0.626158 0.02305,1.185927 0,1.157239 -0.06429,0.957085 0.555665,1.729764 0.159215,0.198442 0.33883,0.432595 0.399205,0.520336 0.109798,0.159536 0.109798,0.159536 0.109798,3.259245 0,2.852243 -0.0046,3.10672 -0.06005,3.187457 -0.03296,0.04826 -0.372314,0.477068 -0.754087,0.952908 -1.135161,1.414888 -1.00727,1.194225 -0.979005,1.689186 l 0.02453,0.426571 -1.72868,1.029131 c -2.209774,1.315556 -5.556479,3.322938 -6.726524,4.03465 l -0.908432,0.552575 z m 0.190167,-1.426546 C 51.366805,29.75372 51.35724,29.691357 51.27697,29.553214 50.923506,28.944595 49.64324,26.412015 49.280602,25.604063 48.561835,24.002743 48.040507,22.862788 47.771225,22.303757 47.608604,21.966107 47.581649,21.932235 47.216412,21.6059 l -0.383913,-0.342982 -0.0228,0.236521 c -0.01262,0.130086 -0.03432,0.54792 -0.04833,0.928522 l -0.02549,0.691997 1.303965,2.164722 c 0.717194,1.1906 1.515384,2.516046 1.773765,2.945439 0.496122,0.824543 0.897466,1.475204 1.266766,2.053606 0.122981,0.192618 0.238002,0.380255 0.255629,0.416972 0.0177,0.03671 0.03989,0.06676 0.04949,0.06676 0.0096,0 0.009,-0.238999 -0.0023,-0.531112 z m 2.04796,-0.781916 c 0.640919,-0.793315 1.267639,-1.728419 2.057396,-3.069646 0.229811,-0.390356 0.472072,-0.79757 0.538344,-0.904923 0.120418,-0.195178 0.120418,-0.195178 -0.222493,-0.523433 -0.188593,-0.180542 -0.911694,-0.813822 -0.923184,-0.812889 -0.01132,0.0011 -0.571576,0.256599 -0.835069,0.795622 -0.263492,0.539028 -0.432339,1.3131 -0.618331,1.788821 -0.322322,1.235124 -0.971453,3.711526 -0.971453,3.739304 0,0.06067 0.669489,-0.634967 0.97479,-1.012856 z m -3.231003,0.612154 c -0.03528,-0.05367 -0.166968,-0.265266 -0.292631,-0.470202 -0.125688,-0.20494 -0.376464,-0.612154 -0.557282,-0.904926 -0.180838,-0.29277 -0.679013,-1.107203 -1.107049,-1.809849 -0.428059,-0.702648 -0.960701,-1.576323 -1.183632,-1.941509 -0.22293,-0.365185 -0.422969,-0.66461 -0.444441,-0.665387 -0.02163,-0.0011 -0.119454,0.08641 -0.217818,0.193765 -0.190558,0.20806 -0.261701,0.231622 -0.432558,0.143262 -0.110527,-0.05716 -0.14447,-0.118608 -0.14447,-0.261446 0,-0.07128 0.0611,-0.152007 0.2477,-0.327113 l 0.247657,-0.232475 -0.217185,-0.358488 c -0.209562,-0.345992 -0.226535,-0.363755 -0.487188,-0.509426 -0.291365,-0.16284 -1.686633,-0.971268 -1.967643,-1.140067 -0.0944,-0.0567 -0.159739,-0.08243 -0.145213,-0.05718 0.142657,0.247831 1.299442,1.85793 3.15276,4.388389 0.252069,0.344152 0.612566,0.841316 0.801115,1.104805 0.991784,1.38603 1.584255,2.180018 1.726323,2.313455 0.09617,0.09036 0.989555,0.623115 1.054997,0.629156 0.01681,0.0017 0.0023,-0.04108 -0.03345,-0.09477 z m 2.041234,-0.731094 c 0.535154,-1.656813 0.968368,-4.23772 1.35001,-8.043116 0.191105,-1.905823 0.253401,-2.394382 0.313731,-2.461564 0.09717,-0.10821 0.208841,-0.134251 0.340228,-0.07936 0.193463,0.08084 0.200301,0.151442 0.107026,1.106018 -0.04565,0.467151 -0.140362,1.445372 -0.2105,2.173825 -0.07009,0.728455 -0.147573,1.490985 -0.172058,1.694512 -0.02453,0.203529 -0.03576,0.369121 -0.02492,0.367983 0.01093,-0.0011 0.134902,-0.152233 0.275725,-0.335762 0.253226,-0.329901 1.609571,-1.774333 1.661973,-2.100207 0.02911,-0.181292 0.138141,-2.520577 0.138141,-2.520577 l 0.629838,-2.938016 0.394551,-3.99984 c 0,0 -1.722718,0.872367 -2.046585,1.022163 l -2.693794,1.514287 c -0.148184,0.219719 -0.349642,0.51271 -0.447783,0.651091 -0.178413,0.251592 -0.178413,0.251592 -0.141935,2.99733 0.02009,1.510156 0.04854,2.767283 0.06327,2.793624 0.01485,0.02634 0.05312,-0.284459 0.08532,-0.690665 0.0567,-0.716224 0.06124,-0.740962 0.150171,-0.818396 0.05039,-0.04391 0.131474,-0.07984 0.180139,-0.07984 0.137022,0 0.294424,0.09792 0.319783,0.19895 0.02536,0.101092 0.02477,0.113455 -0.145999,2.870691 -0.17872,2.886672 -0.221794,3.787666 -0.284222,5.94411 -0.01093,0.380604 -0.02802,0.81954 -0.03781,0.975423 -0.01119,0.175942 -0.0055,0.270146 0.01551,0.24841 0.01813,-0.01926 0.09941,-0.240243 0.180425,-0.491077 z m -5.169246,-1.59072 c -0.408137,-0.572329 -1.04329,-1.447811 -1.411476,-1.945523 -0.368186,-0.497707 -1.182824,-1.614669 -1.182824,-1.614669 l -1.623877,-2.108481 -1.175265,0.792354 -0.886304,0.617649 1.282646,2.015146 1.567719,1.038718 1.706685,0.973036 0.740807,0.342049 c 0,0 1.691614,0.959428 1.711709,0.941307 0.0068,-0.006 -0.321705,-0.479254 -0.72982,-1.051586 z M 60.08144,26.181724 c 0,0 -0.905679,-0.454038 -2.052722,-0.865316 -0.06546,-0.02348 -0.331775,0.0551 -0.585526,0.09386 -0.25375,0.03877 -0.506168,0.07972 -0.560907,0.09103 -0.114002,0.02352 -0.393721,0.433096 -1.088024,1.593214 -0.221948,0.370841 -0.448745,0.741013 -0.504007,0.822603 -0.154386,0.227858 -1.273494,2.155365 -1.273494,2.155365 0.320896,-0.179763 0.996939,-0.702308 0.996939,-0.702308 z m -8.827629,0.921677 c 0.09864,-0.468427 0.101443,-0.891419 0.01551,-2.297798 -0.08265,-1.350469 -0.194381,-3.741589 -0.265349,-5.677953 -0.06564,-1.791302 -0.04059,-1.629304 -0.312749,-2.021576 -0.457044,-0.658756 -0.593367,-0.817972 -0.555534,-0.648837 0.0077,0.03416 0.02918,0.261715 0.04787,0.505691 0.01857,0.243976 0.06826,0.833258 0.110201,1.309519 0.08449,0.958484 0.08052,0.994842 -0.119024,1.089994 -0.109694,0.05232 -0.128174,0.05216 -0.232825,-0.002 -0.06252,-0.03234 -0.126716,-0.09395 -0.14257,-0.136937 -0.01616,-0.04299 -0.04852,-0.309699 -0.07245,-0.592711 -0.02405,-0.283009 -0.06575,-0.738131 -0.09283,-1.011385 -0.02707,-0.273251 -0.06627,-0.768296 -0.08711,-1.100106 -0.02074,-0.331801 -0.04498,-0.636906 -0.0536,-0.678006 -0.01093,-0.05086 -0.148752,-0.12345 -0.231974,-0.171769 -0.345841,-0.200889 -0.726478,-0.335739 -1.098007,-0.483842 -0.07953,-0.0317 -0.235664,-0.09269 -0.241824,-0.08652 -0.02381,0.02387 0.179441,1.929318 0.492255,4.613991 0.167973,1.441584 0.418622,2.767534 0.704417,3.726154 0.321791,1.079479 1.164627,3.382675 1.171879,3.202337 0.0059,-0.151973 -0.380833,-3.846776 -0.444638,-4.245684 -0.02837,-0.177411 0.08502,-0.32291 0.251655,-0.32291 0.250561,0 0.315152,0.0909 0.352853,0.496823 0.01376,0.146385 0.07068,0.641429 0.12682,1.100105 0.05615,0.458671 0.136279,1.113407 0.177999,1.454972 0.04179,0.341566 0.122734,0.892502 0.179878,1.224312 0.05712,0.331802 0.122955,0.727044 0.146262,0.878307 0.02331,0.151263 0.05281,0.275023 0.06564,0.275023 0.01288,0 0.0611,-0.179652 0.107351,-0.399229 z m 9.485367,-2.702974 c 0.197548,-0.213088 0.38127,-0.41837 0.408203,-0.456183 0.04629,-0.06491 0.0443,-0.06624 -0.03552,-0.02376 -0.16852,0.08976 -0.68004,0.429332 -0.996328,0.661489 -0.323627,0.237555 -0.323627,0.237555 -0.167187,0.373337 0.156397,0.135784 0.156397,0.135784 0.293986,-0.01584 0.07565,-0.08339 0.299206,-0.325955 0.496843,-0.539045 z m -2.690453,0.225056 c 0.233001,-0.02245 0.429719,-0.04649 0.437233,-0.05341 0.01093,-0.01028 -1.672392,-2.26844 -1.672392,-2.26844 l -1.183413,1.37431 c 0,0 0.444506,0.467286 0.721805,0.749097 0.275004,0.279522 0.275004,0.279522 0.774095,0.259396 0.274458,-0.01106 0.689694,-0.0385 0.922672,-0.06096 z m 3.009252,-1.814321 c 0.100311,-0.08201 0.185273,-0.150123 0.188811,-0.151362 0.0035,-0.0011 -0.03244,-0.265504 -0.07994,-0.587254 -0.04751,-0.321748 -0.09656,-0.738444 -0.109069,-0.92599 -0.02096,-0.317336 -0.01726,-0.34627 0.05337,-0.416976 0.05125,-0.05126 0.119285,-0.07561 0.209038,-0.07485 0.14626,0.0013 0.223629,0.04611 0.288044,0.167033 0.03977,0.0747 0.111008,0.660494 0.166575,1.370232 0.02456,0.314081 0.02456,0.314081 0.11771,0.220903 0.09308,-0.09318 0.09308,-0.09318 0.08152,-2.212396 -0.0061,-1.165568 -0.01442,-2.121084 -0.0177,-2.123369 -0.0033,-0.0022 -0.200629,0.213184 -0.438258,0.478817 -0.237631,0.265642 -0.706799,0.778415 -1.042635,1.139498 -0.782943,0.841809 -0.872696,0.96173 -1.092983,1.460205 -0.100428,0.227332 -0.182609,0.421015 -0.182609,0.430403 0,0.0094 0.195583,0.184757 0.434721,0.389713 0.239095,0.204952 0.594394,0.510175 0.789584,0.678267 0.195188,0.168097 0.376617,0.305767 0.403157,0.305932 0.0266,1.57e-4 0.130403,-0.0668 0.230706,-0.148803 z m -0.692577,0.782858 -2.25641,-2.238549 -0.849826,0.517964 1.788902,2.487033 z M 41.616569,22.407507 c 0.06484,-0.03076 0.208754,-0.151206 0.319826,-0.267654 l 0.201961,-0.211727 -0.403179,-0.320313 c -0.438128,-0.348058 -0.595485,-0.446992 -0.629692,-0.395851 -0.271247,0.405552 -0.648934,1.008914 -0.638232,1.019626 0.02802,0.02803 0.831478,0.225461 0.930361,0.228622 0.05557,0.0017 0.154103,-0.02193 0.218955,-0.05271 z m 4.304107,-0.715911 c -0.373974,-0.897528 -0.557739,-1.268914 -0.622111,-1.256924 -0.0346,0.0065 -0.318494,0.08884 -0.630784,0.183083 -0.312268,0.09423 -0.628381,0.182678 -0.702406,0.196542 -0.0756,0.01416 -0.128916,0.0428 -0.121628,0.06533 0.0072,0.02208 0.10769,0.09767 0.223366,0.167994 0.316769,0.192605 1.882653,0.989974 1.944076,0.989974 0.04168,0 0.02163,-0.0772 -0.09051,-0.346001 z m 2.367492,0.05855 -0.733362,-5.332057 -0.04809,-1.236135 c 0,0 -1.171737,0.0012 -1.364721,0.115108 -0.193005,0.113897 -1.336822,1.235894 -1.429153,1.288491 -0.167842,0.09564 -0.167842,0.09564 -0.08454,0.316353 0.07518,0.199038 0.374303,0.904924 1.022866,2.413918 0.22577,0.525304 0.22577,0.525304 0.526134,0.761774 0.487188,0.383596 0.899067,0.80032 0.899067,0.80032 z m 11.870028,-3.314284 1.577549,-1.596359 -1.396252,-2.243318 c -0.0558,-0.08968 0.100611,-0.05912 -0.05336,0.05243 -0.280006,0.202828 -2.353039,0.742913 -2.504936,1.168761 -0.150301,0.421337 -0.635716,2.015818 -0.842111,2.564214 -0.594743,1.580376 -0.171303,2.175544 -0.235084,2.319779 -0.04192,0.09475 1.147288,-0.10376 1.147288,-0.09648 0,0.01327 2.306909,-2.169027 2.306909,-2.169027 z m -16.257805,1.599314 1.077715,-0.764148 -0.90238,-2.344957 -1.142742,-1.045405 -1.069649,0.391116 -0.649358,1.07618 -0.04206,1.796317 0.114496,1.326066 1.070783,0.909911 1.543243,-1.345083 z m 7.16321,-5.032919 c 0.174483,-0.239091 0.498022,-0.690226 0.719008,-1.002513 0.22103,-0.312287 0.539043,-0.751689 0.706798,-0.976454 0.167711,-0.22476 0.456673,-0.62112 0.642054,-0.880797 0.185426,-0.259678 0.449574,-0.626723 0.586946,-0.815655 0.793077,-1.090452 1.08099,-1.5010623 1.08099,-1.5416213 0,-0.025026 -0.133024,-0.1778256 -0.295624,-0.3395543 -0.268538,-0.2671267 -0.300102,-0.2885749 -0.345186,-0.2342563 -0.02728,0.032886 -0.305497,0.4328338 -0.618223,0.8887659 -0.776915,1.132724 -2.610245,3.783227 -3.060168,4.424223 -0.202573,0.288557 -0.374827,0.544069 -0.382865,0.567794 -0.01158,0.03477 0.530502,0.331058 0.626153,0.342135 0.01223,0.0017 0.165635,-0.192971 0.340117,-0.432067 z m -4.4975,-0.722656 c 0.125167,-0.16515 -0.364433,-1.278539 -0.345888,-1.302693 0.02453,-0.03205 0.555539,-1.720317 0.555539,-1.720317 l -3.651365,1.22814 -0.585845,0.50795 -0.0094,0.925818 c 0,0 1.1e-4,0.935405 0.01184,0.947121 0.01158,0.01171 0.902343,0.411554 0.902343,0.411554 l 0.807541,0.511673 c 0,0 1.171412,-0.655492 1.197755,-0.686036 z m 14.57121,-1.1978 -1.084573,-1.084009 c 0,0 -1.447888,1.623847 -1.728265,2.115941 -0.280444,0.492085 -0.519473,0.91973 -0.531202,0.950318 -0.02031,0.05286 3.34404,-1.98225 3.34404,-1.98225 z m -11.099983,0.997666 c 0.298813,-0.434206 0.797118,-1.156762 1.107333,-1.605675 0.310216,-0.448911 0.704504,-1.021845 0.876235,-1.273188 0.17162,-0.251335 0.531091,-0.76963 0.798668,-1.151764 0.267621,-0.3821342 0.482055,-0.6993007 0.476507,-0.7048173 -0.0055,-0.00547 -0.208448,0.046356 -0.451015,0.115277 -0.329263,0.093531 -0.589458,0.1015733 -0.589458,0.1015733 l -2.485476,0.670618 -2.077361,0.405147 c 0,0 -0.795285,1.996329 -0.839233,2.1475 -0.07988,0.274858 -0.07988,0.274858 0.240558,0.709741 0.176273,0.239192 0.357177,0.476402 0.402065,0.527139 0.05209,0.05897 0.267271,0.16718 0.596162,0.299856 0.282977,0.11417 0.690218,0.283808 0.904915,0.376956 0.214673,0.09314 0.414296,0.169755 0.443588,0.170233 0.02995,1.73e-4 0.291036,-0.344667 0.596512,-0.788596 z m 7.469363,0.1953 c 0.165372,-0.259553 1.267246,-2.10171 1.267246,-2.118684 0,-0.01067 -0.255477,-0.01944 -0.567745,-0.01944 -0.46506,0 -0.56781,0.0091 -0.56781,0.05005 0,0.08766 -0.212554,1.986379 -0.233742,2.08805 -0.01119,0.05367 -0.0068,0.09759 0.0096,0.09759 0.01661,0 0.05808,-0.04392 0.09228,-0.09759 z m -2.778262,-1.775386 c 0.458638,-0.214933 1.077211,-0.508235 1.374539,-0.651779 l 0.540659,-0.26099 -0.519013,-0.525627 c -0.518946,-0.52563 -0.518946,-0.52563 -0.644762,-0.423794 -0.06918,0.05601 -0.156964,0.143552 -0.195059,0.194534 -0.06889,0.09227 -0.06884,0.09314 0.0064,0.189037 0.152071,0.193315 0.110618,0.27382 -0.339506,0.65976 -0.528231,0.452863 -1.550594,1.381392 -1.583621,1.438278 -0.01616,0.02781 0.09561,-0.01223 0.248399,-0.08903 0.152771,-0.07678 0.653063,-0.315451 1.111724,-0.530387 z"
         id="path5"
         sodipodi:nodetypes="cccccscsscccccccccsssscccccccccccccccccccccccccccccccccccccccccccccccccccccccccccccccccccccccccccccccccccccccccccccccccccccccccccccccccccccccccccccccccccccccccccccccccccccccccccccccccccccccccccccccccccccccccccccsccccccccccccccccccccccccccccccccccccccccccccccccsscccccccccccccccccccccccccccscccccccccccccccccccccccccccccc" />
      <g
         id="g7"
         style="display:inline"
         inkscape:label="simple-v-ground-bang">
        <path
           style="display:inline;fill:#000000;fill-opacity:1;fill-rule:evenodd;stroke:none;stroke-width:1.43642;stroke-linecap:round;stroke-opacity:1"
           d="m 60.33631,28.27819 11.203194,0.930897 -14.3345,0.999305 9.880549,2.930977 -10.676699,-0.387376 2.731238,1.730459 -6.922431,-1.402762 6.473885,-4.945862 z"
           id="path6"
           sodipodi:nodetypes="ccccccccc" />
        <path
           style="display:inline;fill:#000000;fill-opacity:1;fill-rule:evenodd;stroke:none;stroke-width:1.43642;stroke-linecap:round;stroke-opacity:1"
           d="m 43.33449,28.207377 -9.344462,-1.411851 8.493884,3.066894 -10.415949,3.067097 12.501207,-1.281001 -3.322002,2.897098 4.826458,-2.0465 3.055117,2.345233 -0.0078,-2.960749"
           id="path7" />
      </g>
      <g
         id="g9"
         style="display:inline"
         inkscape:label="simple-v-ground-bang">
        <path
           style="display:inline;fill:#000000;fill-opacity:1;fill-rule:evenodd;stroke:none;stroke-width:1.43642;stroke-linecap:round;stroke-opacity:1"
           d="m 60.33631,28.27819 11.203194,0.930897 -14.3345,0.999305 9.880549,2.930977 -10.676699,-0.387376 2.731238,1.730459 -6.922431,-1.402762 6.473885,-4.945862 z"
           id="path8"
           sodipodi:nodetypes="ccccccccc" />
        <path
           style="display:inline;fill:#000000;fill-opacity:1;fill-rule:evenodd;stroke:none;stroke-width:1.43642;stroke-linecap:round;stroke-opacity:1"
           d="m 43.33449,28.207377 -9.344462,-1.411851 8.493884,3.066894 -10.415949,3.067097 12.501207,-1.281001 -3.322002,2.897098 4.826458,-2.0465 3.055117,2.345233 -0.0078,-2.960749"
           id="path9" />
      </g>
    </g>
  </g>
</svg>
