<?xml version="1.0" encoding="UTF-8" standalone="no"?>
<!-- Created with Inkscape (http://www.inkscape.org/) -->

<svg
   width="28.494461mm"
   height="20.436472mm"
   viewBox="0 0 28.494461 20.436472"
   version="1.1"
   id="svg1"
   inkscape:version="1.3 (0e150ed6c4, 2023-07-21)"
   sodipodi:docname="tektite-logo-moldavite.svg"
   xmlns:inkscape="http://www.inkscape.org/namespaces/inkscape"
   xmlns:sodipodi="http://sodipodi.sourceforge.net/DTD/sodipodi-0.dtd"
   xmlns="http://www.w3.org/2000/svg"
   xmlns:svg="http://www.w3.org/2000/svg">
  <sodipodi:namedview
     id="namedview1"
     pagecolor="#ffffff"
     bordercolor="#000000"
     borderopacity="0.25"
     inkscape:showpageshadow="2"
     inkscape:pageopacity="0.0"
     inkscape:pagecheckerboard="0"
     inkscape:deskcolor="#d1d1d1"
     inkscape:document-units="mm"
     inkscape:zoom="2.8284271"
     inkscape:cx="142.65879"
     inkscape:cy="252.79068"
     inkscape:window-width="2554"
     inkscape:window-height="1385"
     inkscape:window-x="0"
     inkscape:window-y="52"
     inkscape:window-maximized="1"
     inkscape:current-layer="layer1"
     inkscape:export-bgcolor="#ffffff00" />
  <defs
     id="defs1" />
  <g
     inkscape:label="Layer 1"
     inkscape:groupmode="layer"
     id="layer1"
     transform="translate(-9.3472969,-58.997771)">
    <g
       id="g1"
       transform="translate(-12.207462,-0.55824569)"
       inkscape:export-filename="g1.svg"
       inkscape:export-xdpi="96"
       inkscape:export-ydpi="96">
      <path
         style="fill:#000000;fill-opacity:1;fill-rule:evenodd;stroke:#000000;stroke-width:0.664185;stroke-linecap:round;stroke-dasharray:none;stroke-opacity:1"
         d="m 37.947225,59.927627 2.403768,2.423224 1.897262,0.05157 1.427526,1.618926 0.05331,1.733893 0.720282,0.984192 0.03935,5.099694 -1.340879,1.716373 -0.01063,0.711112 -7.407134,4.442845 -8.090747,-4.735187 -1.509687,-2.890352 0.724652,-1.271104 0.05247,-3.415886 0.982534,-0.94117 V 63.22834 l 3.842789,-1.450898 0.196538,-0.197163 z"
         id="path412"
         sodipodi:nodetypes="ccccccccccccccccccc" />
      <path
         style="fill:#84e584;fill-opacity:1;stroke:none;stroke-width:0.0256161;stroke-dasharray:none;stroke-opacity:1"
         d="M 35.361748,77.695796 C 35.179969,77.589675 34.720003,77.32225 34.339557,77.101515 33.513714,76.622329 33.00116,76.320881 32.008314,75.730451 31.105916,75.193796 30.544795,74.866361 29.702679,74.385006 28.072187,73.453003 28.27046,73.588874 28.116481,73.297975 27.933646,72.95261 27.586708,72.27744 27.206262,71.526624 c -0.312595,-0.616878 -0.312595,-0.616878 -0.237773,-0.742929 0.156013,-0.262853 0.578166,-0.948671 0.624053,-1.01383 0.04548,-0.06457 0.04788,-0.144925 0.04788,-1.592632 v -1.52463 l 0.448301,-0.429445 0.448329,-0.429447 v -1.016344 -1.016342 l 0.505947,-0.185803 c 0.278283,-0.102188 1.053571,-0.368168 1.722818,-0.591066 1.216868,-0.405269 1.216868,-0.405269 1.278081,-0.547187 0.05564,-0.1289 0.0721,-0.145406 0.179351,-0.179928 0.169416,-0.05452 1.840039,-0.522776 2.474972,-0.693704 0.295895,-0.07966 0.820418,-0.225209 1.165638,-0.323453 1.410678,-0.401477 1.821321,-0.510361 1.851896,-0.49101 0.01752,0.01109 0.514841,0.512987 1.105245,1.11533 0.590356,0.602351 1.08014,1.095573 1.088371,1.096051 0.0082,4.73e-4 0.401165,0.01128 0.873195,0.02397 l 0.858199,0.02309 0.230567,0.243221 c 0.126811,0.133769 0.416178,0.43887 0.643038,0.678 0.387936,0.408915 0.413466,0.442002 0.429124,0.556175 0.0088,0.06677 0.01664,0.452023 0.01664,0.856119 0,0.83541 -0.04641,0.690919 0.401134,1.248715 0.114938,0.143255 0.244601,0.31229 0.288186,0.37563 0.07926,0.115169 0.07926,0.115169 0.07926,2.352845 0,2.059031 -0.0033,2.242738 -0.04335,2.301022 -0.02379,0.03484 -0.268773,0.344395 -0.544374,0.687903 -0.819472,1.021406 -0.727148,0.86211 -0.706743,1.219422 l 0.01771,0.307941 -1.247932,0.742929 c -1.595234,0.949698 -4.011216,2.398825 -4.85587,2.912609 l -0.655796,0.398903 z m 0.137281,-1.029822 c -0.01246,-0.348405 -0.01936,-0.393425 -0.07731,-0.49315 -0.255166,-0.439362 -1.179388,-2.267628 -1.441176,-2.850888 -0.518877,-1.155991 -0.895223,-1.978923 -1.089618,-2.382487 -0.117396,-0.24375 -0.136854,-0.268202 -0.400519,-0.503783 L 32.21326,70.188068 32.1968,70.358812 c -0.0091,0.09391 -0.02478,0.395543 -0.03489,0.670299 l -0.0184,0.499552 0.941331,1.562711 c 0.517742,0.859493 1.093954,1.816331 1.280479,2.126309 0.35815,0.595237 0.64788,1.064948 0.914477,1.482496 0.08878,0.13905 0.171813,0.274505 0.184538,0.301011 0.01278,0.0265 0.0288,0.04819 0.03573,0.04819 0.0069,0 0.0065,-0.172533 -0.0017,-0.383409 z m 1.47842,-0.564465 c 0.462679,-0.572693 0.915108,-1.247743 1.485232,-2.215974 0.165901,-0.281797 0.340789,-0.575765 0.38863,-0.653263 0.08693,-0.140898 0.08693,-0.140898 -0.160617,-0.377865 -0.136145,-0.130333 -0.658151,-0.587497 -0.666446,-0.586824 -0.0082,7.94e-4 -0.41262,0.185239 -0.602835,0.574359 -0.190215,0.389123 -0.312105,0.947925 -0.446373,1.291348 -0.232683,0.891634 -0.70129,2.679346 -0.70129,2.699399 0,0.0438 0.483303,-0.458382 0.703699,-0.73118 z m -2.332457,0.441914 c -0.02547,-0.03875 -0.120534,-0.191495 -0.21125,-0.339439 -0.09073,-0.147946 -0.271769,-0.441913 -0.402301,-0.653265 -0.130547,-0.21135 -0.490179,-0.799288 -0.799178,-1.306528 -0.309015,-0.50724 -0.693529,-1.137945 -0.854462,-1.401573 -0.160933,-0.263627 -0.305341,-0.479781 -0.320842,-0.480342 -0.01561,-7.94e-4 -0.08623,0.06238 -0.157243,0.139879 -0.137563,0.150198 -0.188921,0.167207 -0.312263,0.10342 -0.07979,-0.04126 -0.104292,-0.08562 -0.104292,-0.188737 0,-0.05146 0.04411,-0.109734 0.178814,-0.236143 l 0.178783,-0.167823 -0.156785,-0.258792 c -0.151283,-0.249771 -0.163536,-0.262595 -0.351701,-0.367754 -0.210336,-0.117554 -1.217578,-0.701158 -1.420439,-0.823013 -0.06815,-0.04093 -0.115316,-0.05951 -0.104829,-0.04128 0.102984,0.178909 0.938066,1.341238 2.275974,3.167974 0.181968,0.248443 0.44221,0.607345 0.578324,0.797557 0.715968,1.000574 1.143672,1.573753 1.24623,1.670081 0.06942,0.06523 0.714359,0.449826 0.761602,0.454187 0.01214,0.0012 0.0017,-0.02966 -0.02415,-0.06842 z m 1.473564,-0.527776 c 0.386328,-1.196052 0.699064,-3.059206 0.974571,-5.806317 0.137959,-1.375811 0.18293,-1.728502 0.226482,-1.777 0.07015,-0.07812 0.150762,-0.09692 0.24561,-0.05729 0.139661,0.05836 0.144598,0.109326 0.07726,0.798433 -0.03295,0.337236 -0.101327,1.043413 -0.151959,1.569282 -0.0506,0.525871 -0.106533,1.07634 -0.124209,1.223266 -0.01771,0.146928 -0.02582,0.266468 -0.01799,0.265647 0.0079,-7.94e-4 0.09739,-0.109897 0.199045,-0.242386 0.182804,-0.238155 1.161948,-1.280889 1.199777,-1.516137 0.02101,-0.130875 0.09972,-1.819602 0.09972,-1.819602 l 0.45468,-2.120951 0.284826,-2.88748 c 0,0 -1.243629,0.629761 -1.477428,0.737899 L 36.1643,65.476173 c -0.106974,0.158615 -0.252406,0.370124 -0.323254,0.470022 -0.128796,0.181623 -0.128796,0.181623 -0.102462,2.163769 0.0145,1.09018 0.03504,1.997698 0.04567,2.016714 0.01072,0.01901 0.03835,-0.205351 0.06159,-0.49859 0.04093,-0.517042 0.04421,-0.5349 0.108408,-0.5908 0.03638,-0.0317 0.09491,-0.05764 0.130042,-0.05764 0.09892,0 0.212544,0.07069 0.230851,0.143622 0.01831,0.07298 0.01788,0.0819 -0.105397,2.072348 -0.129017,2.083886 -0.160112,2.734312 -0.205179,4.291047 -0.0079,0.274757 -0.02023,0.591625 -0.0273,0.704157 -0.0081,0.127012 -0.004,0.195018 0.0112,0.179327 0.01309,-0.0139 0.07176,-0.173432 0.130248,-0.354508 z m -3.731673,-1.148339 c -0.294633,-0.413164 -0.753149,-1.045173 -1.018942,-1.404471 -0.265794,-0.359294 -0.85388,-1.165628 -0.85388,-1.165628 l -1.172275,-1.52211 -0.848422,0.571999 -0.639822,0.445881 0.92594,1.454731 1.131735,0.74985 1.232054,0.702433 0.534788,0.246925 c 0,0 1.221174,0.69261 1.235681,0.679529 0.0049,-0.0043 -0.232239,-0.345973 -0.526857,-0.759139 z m 9.390774,-1.128359 c 0,0 -0.653809,-0.32777 -1.481858,-0.624671 -0.04725,-0.01695 -0.239508,0.03978 -0.42269,0.06776 -0.183182,0.02799 -0.365403,0.05755 -0.404919,0.06571 -0.0823,0.01698 -0.284226,0.312652 -0.785443,1.150139 -0.160224,0.26771 -0.323948,0.534937 -0.363842,0.593837 -0.111451,0.16449 -0.919334,1.555955 -0.919334,1.555955 0.231655,-0.12977 0.719689,-0.506995 0.719689,-0.506995 z m -6.372656,0.665357 c 0.07121,-0.338157 0.07323,-0.643514 0.0112,-1.658777 -0.05967,-0.974903 -0.140323,-2.701049 -0.191555,-4.098909 -0.04739,-1.293138 -0.0293,-1.176192 -0.225773,-1.459373 -0.32994,-0.475555 -0.428351,-0.590493 -0.40104,-0.468395 0.0056,0.02466 0.02107,0.188932 0.03456,0.365058 0.0134,0.176126 0.04928,0.601528 0.07955,0.94534 0.06099,0.691929 0.05813,0.718176 -0.08592,0.786866 -0.07919,0.03777 -0.09253,0.03765 -0.168076,-0.0014 -0.04513,-0.02335 -0.09148,-0.06782 -0.102921,-0.09886 -0.01167,-0.03103 -0.03503,-0.223571 -0.0523,-0.427877 -0.01736,-0.204304 -0.04746,-0.532856 -0.06701,-0.730118 -0.01954,-0.197259 -0.04784,-0.554632 -0.06289,-0.794165 -0.01497,-0.239527 -0.03247,-0.459782 -0.03869,-0.489452 -0.0079,-0.03672 -0.107384,-0.08912 -0.167462,-0.124 -0.249662,-0.145021 -0.524443,-0.242369 -0.79265,-0.349285 -0.05741,-0.02288 -0.170125,-0.06691 -0.174572,-0.06246 -0.01719,0.01723 0.129538,1.392772 0.355358,3.330835 0.12126,1.040678 0.302203,1.997879 0.508518,2.689906 0.232301,0.779275 0.840743,2.441949 0.845978,2.311764 0.0043,-0.109709 -0.274923,-2.776984 -0.320983,-3.064955 -0.02048,-0.128073 0.06137,-0.233108 0.181669,-0.233108 0.18088,0 0.227508,0.06562 0.254724,0.358656 0.0099,0.105675 0.05102,0.463047 0.09155,0.794164 0.04053,0.331114 0.09838,0.803768 0.128498,1.050343 0.03017,0.246576 0.0886,0.644296 0.129853,0.883829 0.04124,0.239528 0.08876,0.524853 0.105587,0.634049 0.01683,0.109197 0.03812,0.198539 0.04739,0.198539 0.0093,0 0.04411,-0.129691 0.0775,-0.288203 z m 6.847476,-1.951274 c 0.14261,-0.153828 0.275239,-0.30202 0.294682,-0.329318 0.03342,-0.04686 0.03198,-0.04782 -0.02564,-0.01715 -0.121655,0.0648 -0.49092,0.309934 -0.719248,0.477528 -0.233626,0.171491 -0.233626,0.171491 -0.120692,0.269512 0.112902,0.09802 0.112902,0.09802 0.212228,-0.01143 0.05461,-0.0602 0.215996,-0.235307 0.35867,-0.389136 z M 40.310242,72.6155 c 0.168203,-0.01621 0.310214,-0.03356 0.315638,-0.03856 0.0079,-0.0074 -1.207298,-1.637584 -1.207298,-1.637584 l -0.854304,0.992113 c 0,0 0.320888,0.337333 0.52107,0.540772 0.198525,0.201787 0.198525,0.201787 0.558818,0.187258 0.198131,-0.008 0.49789,-0.02779 0.666076,-0.04401 z m 2.172376,-1.309756 c 0.07241,-0.0592 0.133748,-0.108374 0.136302,-0.109268 0.0025,-7.94e-4 -0.02342,-0.191667 -0.05771,-0.423938 -0.0343,-0.23227 -0.06971,-0.533082 -0.07874,-0.668471 -0.01513,-0.229085 -0.01246,-0.249972 0.03853,-0.301015 0.037,-0.037 0.08611,-0.05458 0.150904,-0.05403 0.105585,9.38e-4 0.161438,0.03329 0.207939,0.120581 0.02871,0.05393 0.08014,0.47681 0.12025,0.989169 0.01773,0.226735 0.01773,0.226735 0.08498,0.159469 0.06719,-0.06727 0.06719,-0.06727 0.05885,-1.597126 -0.0044,-0.841422 -0.01041,-1.531208 -0.01278,-1.532858 -0.0024,-0.0016 -0.144834,0.153898 -0.316378,0.345658 -0.171545,0.191767 -0.510237,0.561937 -0.752677,0.822602 -0.565205,0.607701 -0.629998,0.694272 -0.789023,1.054121 -0.0725,0.16411 -0.131825,0.30393 -0.131825,0.310707 0,0.0068 0.141191,0.133376 0.313824,0.281333 0.172603,0.147955 0.429093,0.368295 0.57,0.489641 0.140906,0.121349 0.27188,0.220733 0.291039,0.220852 0.0192,1.13e-4 0.09414,-0.04822 0.166546,-0.107421 z m -0.499971,0.565144 -1.6289,-1.616006 -0.613488,0.373918 1.291406,1.795386 z m -13.53476,-0.856542 c 0.04681,-0.02221 0.150699,-0.109156 0.230882,-0.193219 l 0.145795,-0.152846 -0.291054,-0.231234 c -0.316284,-0.251262 -0.42988,-0.322683 -0.454574,-0.285764 -0.195813,0.292768 -0.468465,0.728334 -0.460739,0.736067 0.02023,0.02023 0.600243,0.16276 0.671627,0.165042 0.04012,0.0012 0.111246,-0.01583 0.158063,-0.03805 z m 3.10713,-0.516816 c -0.269971,-0.647924 -0.402631,-0.916027 -0.449101,-0.907372 -0.02498,0.0047 -0.229921,0.06413 -0.455363,0.132168 -0.225425,0.06802 -0.453627,0.131875 -0.507066,0.141883 -0.05457,0.01022 -0.09306,0.0309 -0.0878,0.04716 0.0052,0.01594 0.07774,0.07051 0.161248,0.121274 0.228675,0.139042 1.359085,0.714662 1.403426,0.714662 0.03009,0 0.01562,-0.05573 -0.06534,-0.249778 z m 1.70909,0.04227 -0.529413,-3.849206 -0.03472,-0.892364 c 0,0 -0.845876,8.66e-4 -0.985191,0.0831 -0.13933,0.08222 -0.96505,0.892191 -1.031704,0.93016 -0.121165,0.06904 -0.121165,0.06904 -0.06103,0.228375 0.05427,0.143686 0.270209,0.653264 0.738405,1.742605 0.162984,0.379216 0.162984,0.379216 0.379816,0.549924 0.351701,0.276917 0.649035,0.57775 0.649035,0.57775 z m 8.56896,-2.392578 1.138831,-1.152409 -1.007953,-1.619449 c -0.04028,-0.06474 0.07263,-0.04268 -0.03852,0.03785 -0.202136,0.146421 -1.698657,0.536308 -1.808311,0.843727 -0.108502,0.304163 -0.458923,1.455217 -0.607919,1.851104 -0.429344,1.140871 -0.123663,1.570522 -0.169707,1.674646 -0.03026,0.0684 0.828226,-0.07491 0.828226,-0.06965 0,0.0096 1.665355,-1.565819 1.665355,-1.565819 z m -11.736492,1.154544 0.778002,-0.551638 -0.651427,-1.692822 -0.824945,-0.754677 -0.772178,0.282347 -0.468771,0.776893 -0.03036,1.296759 0.08266,0.957286 0.772997,0.656863 1.114065,-0.971014 z m 5.171114,-3.633259 c 0.125959,-0.1726 0.359521,-0.498274 0.519051,-0.723713 0.159561,-0.22544 0.389135,-0.542644 0.510237,-0.704901 0.12107,-0.162254 0.329671,-0.448386 0.463498,-0.635847 0.133859,-0.187461 0.324547,-0.45243 0.423715,-0.58882 0.572522,-0.787196 0.780366,-1.083615 0.780366,-1.112895 0,-0.01807 -0.09603,-0.128372 -0.213411,-0.245124 -0.193857,-0.192838 -0.216643,-0.208322 -0.249189,-0.169109 -0.01969,0.02374 -0.220538,0.312462 -0.446295,0.641599 -0.560854,0.817712 -1.884333,2.731107 -2.209132,3.193842 -0.146237,0.208309 -0.270587,0.392763 -0.276389,0.40989 -0.0084,0.0251 0.382968,0.23899 0.452019,0.246987 0.0088,0.0012 0.119572,-0.139306 0.24553,-0.311909 z m -3.24674,-0.521685 c 0.09036,-0.119221 -0.263084,-0.922976 -0.249697,-0.940412 0.01771,-0.02314 0.401043,-1.241895 0.401043,-1.241895 l -2.635916,0.886593 -0.422921,0.366688 -0.0068,0.668347 c 0,0 8e-5,0.675268 0.0085,0.683726 0.0084,0.0085 0.6514,0.2971 0.6514,0.2971 l 0.582963,0.369376 c 0,0 0.845641,-0.473199 0.864658,-0.495248 z m 10.51894,-0.86469 -0.782952,-0.782545 c 0,0 -1.045229,1.172253 -1.247633,1.527495 -0.202452,0.355236 -0.375007,0.663952 -0.383474,0.686034 -0.01466,0.03816 2.414059,-1.430984 2.414059,-1.430984 z m -8.013065,0.720214 c 0.215712,-0.313453 0.575438,-0.835065 0.799382,-1.159135 0.223945,-0.324069 0.508581,-0.737669 0.632553,-0.919113 0.123892,-0.181439 0.383394,-0.555595 0.576558,-0.831457 0.193195,-0.275863 0.347995,-0.504825 0.34399,-0.508807 -0.004,-0.0039 -0.150479,0.03346 -0.325588,0.08322 -0.237694,0.06752 -0.425529,0.07333 -0.425529,0.07333 l -1.794262,0.484118 -1.499645,0.292475 c 0,0 -0.574115,1.441148 -0.605841,1.550278 -0.05767,0.19842 -0.05767,0.19842 0.173658,0.512361 0.127252,0.172673 0.257846,0.343914 0.290251,0.380541 0.0376,0.04257 0.192942,0.120688 0.430368,0.216466 0.204281,0.08242 0.498268,0.204881 0.653257,0.272124 0.154973,0.06724 0.29908,0.122546 0.320226,0.122891 0.02162,1.25e-4 0.210099,-0.248814 0.430622,-0.569286 z m 5.392124,0.140987 c 0.119382,-0.187371 0.914824,-1.517223 0.914824,-1.529476 0,-0.0077 -0.184429,-0.01403 -0.409855,-0.01403 -0.335726,0 -0.409901,0.0066 -0.409901,0.03613 0,0.06328 -0.153442,1.433965 -0.168738,1.507361 -0.0081,0.03875 -0.0049,0.07045 0.0069,0.07045 0.01199,0 0.04193,-0.03171 0.06662,-0.07045 z m -2.005624,-1.28165 c 0.33109,-0.15516 0.777638,-0.366894 0.992278,-0.470518 l 0.390302,-0.188409 -0.374675,-0.379449 c -0.374627,-0.379452 -0.374627,-0.379452 -0.465453,-0.305937 -0.04994,0.04043 -0.113313,0.103631 -0.140813,0.140434 -0.04973,0.06661 -0.0497,0.06724 0.0046,0.136466 0.10978,0.139554 0.07986,0.19767 -0.245089,0.47628 -0.381329,0.326921 -1.119372,0.997225 -1.143214,1.038291 -0.01167,0.02008 0.06902,-0.0088 0.179319,-0.06427 0.110285,-0.05543 0.471445,-0.227724 0.802552,-0.382886 z"
         id="path413"
         sodipodi:nodetypes="cccccscsscccccccccsssscccccccccccccccccccccccccccccccccccccccccccccccccccccccccccccccccccccccccccccccccccccccccccccccccccccccccccccccccccccccccccccccccccccccccccccccccccccccccccccccccccccccccccccccccccccccccccccsccccccccccccccccccccccccccccccccccccccccccccccccsscccccccccccccccccccccccccccscccccccccccccccccccccccccccccc" />
      <g
         id="g415"
         style="display:inline"
         inkscape:label="simple-v-ground-bang"
         transform="matrix(0.7218989,0,0,0.7218989,-1.5950685,54.838391)">
        <path
           style="display:inline;fill:#000000;fill-opacity:1;fill-rule:evenodd;stroke:none;stroke-width:1.43642;stroke-linecap:round;stroke-opacity:1"
           d="m 60.33631,28.27819 11.203194,0.930897 -14.3345,0.999305 9.880549,2.930977 -10.676699,-0.387376 2.731238,1.730459 -6.922431,-1.402762 6.473885,-4.945862 z"
           id="path414"
           sodipodi:nodetypes="ccccccccc" />
        <path
           style="display:inline;fill:#000000;fill-opacity:1;fill-rule:evenodd;stroke:none;stroke-width:1.43642;stroke-linecap:round;stroke-opacity:1"
           d="m 43.33449,28.207377 -9.344462,-1.411851 8.493884,3.066894 -10.415949,3.067097 12.501207,-1.281001 -3.322002,2.897098 4.826458,-2.0465 3.055117,2.345233 -0.0078,-2.960749"
           id="path415" />
      </g>
    </g>
  </g>
</svg>
